<?xml version="1.0" encoding="UTF-8"?>
<!DOCTYPE svg PUBLIC "-//W3C//DTD SVG 1.1//EN" "http://www.w3.org/Graphics/SVG/1.1/DTD/svg11.dtd">
<svg xmlns="http://www.w3.org/2000/svg" version="1.1" width="300px" height="300px" style="shape-rendering:geometricPrecision; text-rendering:geometricPrecision; image-rendering:optimizeQuality; fill-rule:evenodd; clip-rule:evenodd" xmlns:xlink="http://www.w3.org/1999/xlink">
<g><path style="opacity:1" fill="#3493d1" d="M -0.5,-0.5 C 15.5,-0.5 31.5,-0.5 47.5,-0.5C 46.8353,2.47011 46.1686,5.47011 45.5,8.5C 45.9767,9.47758 46.6433,10.3109 47.5,11C 44.7028,14.6627 43.0362,18.8294 42.5,23.5C 41.5,23.5 40.5,23.5 39.5,23.5C 39.6495,24.552 39.4828,25.552 39,26.5C 36.9229,28.0758 35.4229,30.0758 34.5,32.5C 29.4186,36.9255 24.0852,40.9255 18.5,44.5C 14.7452,46.0172 10.7452,47.0172 6.5,47.5C 4.69399,46.1413 3.19399,46.4746 2,48.5C 1.32924,47.7476 0.495904,47.4142 -0.5,47.5C -0.5,31.5 -0.5,15.5 -0.5,-0.5 Z"/></g>
<g><path style="opacity:1" fill="#3f8ecd" d="M 47.5,-0.5 C 57.5,-0.5 67.5,-0.5 77.5,-0.5C 76.9234,6.07636 76.9234,12.743 77.5,19.5C 76.8693,22.9593 75.2026,25.7926 72.5,28C 72.8333,28.3333 73.1667,28.6667 73.5,29C 72.552,29.4828 71.552,29.6495 70.5,29.5C 69.3904,33.0512 69.3904,36.5512 70.5,40C 70.1667,40.1667 69.8333,40.3333 69.5,40.5C 68.7492,39.624 68.2492,38.624 68,37.5C 66.6924,39.6414 65.1924,41.6414 63.5,43.5C 64.6816,45.4669 64.0149,46.8003 61.5,47.5C 61.8333,48.1667 62.1667,48.8333 62.5,49.5C 59.0577,52.226 55.7244,54.3927 52.5,56C 54.7671,57.0812 54.9338,58.5812 53,60.5C 52.3333,59.8333 51.6667,59.1667 51,58.5C 47.9857,60.7 45.819,63.5334 44.5,67C 37.0685,70.685 30.0685,74.0183 23.5,77C 21.444,77.3108 19.444,77.8108 17.5,78.5C 16.3348,77.5089 15.1681,76.5089 14,75.5C 11.2099,76.4857 10.0432,78.1523 10.5,80.5C 9.18614,79.6872 8.01948,78.6872 7,77.5C 5.7275,80.2224 3.56083,81.5557 0.5,81.5C 0.767809,79.901 0.434475,78.5676 -0.5,77.5C -0.5,67.5 -0.5,57.5 -0.5,47.5C 0.495904,47.4142 1.32924,47.7476 2,48.5C 3.19399,46.4746 4.69399,46.1413 6.5,47.5C 10.7452,47.0172 14.7452,46.0172 18.5,44.5C 24.0852,40.9255 29.4186,36.9255 34.5,32.5C 35.4229,30.0758 36.9229,28.0758 39,26.5C 39.4828,25.552 39.6495,24.552 39.5,23.5C 40.5,23.5 41.5,23.5 42.5,23.5C 43.0362,18.8294 44.7028,14.6627 47.5,11C 46.6433,10.3109 45.9767,9.47758 45.5,8.5C 46.1686,5.47011 46.8353,2.47011 47.5,-0.5 Z"/></g>
<g><path style="opacity:1" fill="#4789c9" d="M 77.5,-0.5 C 82.8333,-0.5 88.1667,-0.5 93.5,-0.5C 94.0906,0.151487 94.7573,0.818153 95.5,1.5C 95.1543,2.69559 94.6543,2.69559 94,1.5C 93.7638,3.76399 93.2638,5.93066 92.5,8C 92.9402,10.1623 93.2735,12.329 93.5,14.5C 92.8938,16.7094 92.2272,18.876 91.5,21C 94.2636,22.544 94.0969,23.7107 91,24.5C 90.3581,26.7619 89.5248,28.9285 88.5,31C 88.8333,31.3333 89.1667,31.6667 89.5,32C 86.1207,37.9287 82.6207,43.762 79,49.5C 78.6667,51.1667 78.3333,52.8333 78,54.5C 77.6667,54.1667 77.3333,53.8333 77,53.5C 75.7485,55.0009 74.7485,56.6675 74,58.5C 69.5057,59.7334 69.6724,60.9001 74.5,62C 71.4383,63.2049 68.4383,64.3716 65.5,65.5C 65.6495,66.552 65.4828,67.552 65,68.5C 62.8333,69.3333 61.3333,70.8333 60.5,73C 53.0565,77.4947 45.7232,81.9947 38.5,86.5C 36.5352,87.2922 34.5352,87.9588 32.5,88.5C 31.8076,87.9747 31.3076,87.3081 31,86.5C 30.6258,87.4162 30.1258,88.2496 29.5,89C 22.3437,91.0825 15.1771,93.2491 8,95.5C 5.544,93.6787 2.71066,93.012 -0.5,93.5C -0.5,88.1667 -0.5,82.8333 -0.5,77.5C 0.434475,78.5676 0.767809,79.901 0.5,81.5C 3.56083,81.5557 5.7275,80.2224 7,77.5C 8.01948,78.6872 9.18614,79.6872 10.5,80.5C 10.0432,78.1523 11.2099,76.4857 14,75.5C 15.1681,76.5089 16.3348,77.5089 17.5,78.5C 19.444,77.8108 21.444,77.3108 23.5,77C 30.0685,74.0183 37.0685,70.685 44.5,67C 45.819,63.5334 47.9857,60.7 51,58.5C 51.6667,59.1667 52.3333,59.8333 53,60.5C 54.9338,58.5812 54.7671,57.0812 52.5,56C 55.7244,54.3927 59.0577,52.226 62.5,49.5C 62.1667,48.8333 61.8333,48.1667 61.5,47.5C 64.0149,46.8003 64.6816,45.4669 63.5,43.5C 65.1924,41.6414 66.6924,39.6414 68,37.5C 68.2492,38.624 68.7492,39.624 69.5,40.5C 69.8333,40.3333 70.1667,40.1667 70.5,40C 69.3904,36.5512 69.3904,33.0512 70.5,29.5C 71.552,29.6495 72.552,29.4828 73.5,29C 73.1667,28.6667 72.8333,28.3333 72.5,28C 75.2026,25.7926 76.8693,22.9593 77.5,19.5C 76.9234,12.743 76.9234,6.07636 77.5,-0.5 Z"/></g>
<g><path style="opacity:1" fill="#4d86c6" d="M 93.5,-0.5 C 98.8333,-0.5 104.167,-0.5 109.5,-0.5C 109.958,4.86588 109.291,10.0325 107.5,15C 108.097,16.0617 108.43,17.2284 108.5,18.5C 107.686,21.2966 107.019,24.1299 106.5,27C 106.675,28.6581 107.342,29.9914 108.5,31C 106.866,31.4935 105.199,31.6602 103.5,31.5C 103.372,37.3058 101.706,42.8058 98.5,48C 98.6448,48.772 98.9781,49.4387 99.5,50C 96.3374,51.4798 94.504,53.9798 94,57.5C 90.0374,61.8002 86.8707,66.4668 84.5,71.5C 83.325,71.281 82.325,71.6143 81.5,72.5C 80.2956,75.4147 78.2956,77.5814 75.5,79C 76.1667,79.3333 76.8333,79.6667 77.5,80C 73.7061,80.4563 71.0394,82.4563 69.5,86C 65.5473,86.9527 63.3806,89.4527 63,93.5C 62.6667,92.5 62.3333,91.5 62,90.5C 56.7293,93.1219 52.0626,96.4552 48,100.5C 47.586,100.043 47.086,99.7093 46.5,99.5C 37.8172,104.341 28.4839,107.341 18.5,108.5C 18.3068,112.449 17.8068,112.449 17,108.5C 11.1491,109.391 5.31574,110.391 -0.5,111.5C -0.5,105.5 -0.5,99.5 -0.5,93.5C 2.71066,93.012 5.544,93.6787 8,95.5C 15.1771,93.2491 22.3437,91.0825 29.5,89C 30.1258,88.2496 30.6258,87.4162 31,86.5C 31.3076,87.3081 31.8076,87.9747 32.5,88.5C 34.5352,87.9588 36.5352,87.2922 38.5,86.5C 45.7232,81.9947 53.0565,77.4947 60.5,73C 61.3333,70.8333 62.8333,69.3333 65,68.5C 65.4828,67.552 65.6495,66.552 65.5,65.5C 68.4383,64.3716 71.4383,63.2049 74.5,62C 69.6724,60.9001 69.5057,59.7334 74,58.5C 74.7485,56.6675 75.7485,55.0009 77,53.5C 77.3333,53.8333 77.6667,54.1667 78,54.5C 78.3333,52.8333 78.6667,51.1667 79,49.5C 82.6207,43.762 86.1207,37.9287 89.5,32C 89.1667,31.6667 88.8333,31.3333 88.5,31C 89.5248,28.9285 90.3581,26.7619 91,24.5C 94.0969,23.7107 94.2636,22.544 91.5,21C 92.2272,18.876 92.8938,16.7094 93.5,14.5C 93.2735,12.329 92.9402,10.1623 92.5,8C 93.2638,5.93066 93.7638,3.76399 94,1.5C 94.6543,2.69559 95.1543,2.69559 95.5,1.5C 94.7573,0.818153 94.0906,0.151487 93.5,-0.5 Z"/></g>
<g><path style="opacity:1" fill="#5483c4" d="M 109.5,-0.5 C 114.5,-0.5 119.5,-0.5 124.5,-0.5C 125.341,2.57585 125.674,5.57585 125.5,8.5C 124.012,16.1247 122.678,23.7914 121.5,31.5C 121.529,33.0293 122.196,34.196 123.5,35C 120.999,36.4177 121.332,37.4177 124.5,38C 123.552,38.4828 122.552,38.6495 121.5,38.5C 121.587,41.5983 121.087,41.9316 120,39.5C 119.333,40.8333 118.333,41.8333 117,42.5C 113.947,49.3687 111.28,56.0354 109,62.5C 104.257,68.3211 99.7567,74.3211 95.5,80.5C 91.2065,84.6285 87.0398,88.9619 83,93.5C 82.3162,94.7839 82.4829,95.9505 83.5,97C 82.244,97.4169 81.5774,98.2502 81.5,99.5C 72.6125,96.5262 65.4458,98.8595 60,106.5C 58.7258,109.391 57.2258,112.058 55.5,114.5C 55.6068,112.621 55.1068,112.288 54,113.5C 53.6924,112.692 53.1924,112.025 52.5,111.5C 51.5,112.833 50.5,114.167 49.5,115.5C 48.8076,114.975 48.3076,114.308 48,113.5C 47.6924,114.308 47.1924,114.975 46.5,115.5C 40.9285,117.343 35.5952,119.676 30.5,122.5C 26.1577,121.696 21.9911,122.362 18,124.5C 17.3333,128.5 16.6667,128.5 16,124.5C 15.5172,125.448 15.3505,126.448 15.5,127.5C 9.95589,127.748 4.62256,127.081 -0.5,125.5C -0.5,120.833 -0.5,116.167 -0.5,111.5C 5.31574,110.391 11.1491,109.391 17,108.5C 17.8068,112.449 18.3068,112.449 18.5,108.5C 28.4839,107.341 37.8172,104.341 46.5,99.5C 47.086,99.7093 47.586,100.043 48,100.5C 52.0626,96.4552 56.7293,93.1219 62,90.5C 62.3333,91.5 62.6667,92.5 63,93.5C 63.3806,89.4527 65.5473,86.9527 69.5,86C 71.0394,82.4563 73.7061,80.4563 77.5,80C 76.8333,79.6667 76.1667,79.3333 75.5,79C 78.2956,77.5814 80.2956,75.4147 81.5,72.5C 82.325,71.6143 83.325,71.281 84.5,71.5C 86.8707,66.4668 90.0374,61.8002 94,57.5C 94.504,53.9798 96.3374,51.4798 99.5,50C 98.9781,49.4387 98.6448,48.772 98.5,48C 101.706,42.8058 103.372,37.3058 103.5,31.5C 105.199,31.6602 106.866,31.4935 108.5,31C 107.342,29.9914 106.675,28.6581 106.5,27C 107.019,24.1299 107.686,21.2966 108.5,18.5C 108.43,17.2284 108.097,16.0617 107.5,15C 109.291,10.0325 109.958,4.86588 109.5,-0.5 Z"/></g>
<g><path style="opacity:1" fill="#5a7fc1" d="M 124.5,-0.5 C 129.833,-0.5 135.167,-0.5 140.5,-0.5C 140.082,0.221579 139.416,0.721579 138.5,1C 139.624,1.83884 140.291,3.00551 140.5,4.5C 139.608,11.1282 138.275,17.6282 136.5,24C 136.957,24.414 137.291,24.914 137.5,25.5C 136.583,26.9705 135.583,28.4705 134.5,30C 134.721,31.7985 135.054,33.6318 135.5,35.5C 131.892,46.9084 127.225,57.9084 121.5,68.5C 120.998,69.521 120.332,69.6877 119.5,69C 120.833,67.1598 120.666,66.6598 119,67.5C 118.405,68.8989 118.572,70.2322 119.5,71.5C 114.4,80.4228 108.067,88.2561 100.5,95C 100.833,95.3333 101.167,95.6667 101.5,96C 99.1667,98.3333 96.8333,100.667 94.5,103C 93.6683,103.688 93.0016,103.521 92.5,102.5C 93.1667,101.833 93.8333,101.167 94.5,100.5C 94.1667,100.167 93.8333,99.8333 93.5,99.5C 92.5,100.833 91.5,100.833 90.5,99.5C 90.2124,100.861 89.879,102.194 89.5,103.5C 86.9561,101.981 84.2895,100.648 81.5,99.5C 81.5774,98.2502 82.244,97.4169 83.5,97C 82.4829,95.9505 82.3162,94.7839 83,93.5C 87.0398,88.9619 91.2065,84.6285 95.5,80.5C 99.7567,74.3211 104.257,68.3211 109,62.5C 111.28,56.0354 113.947,49.3687 117,42.5C 118.333,41.8333 119.333,40.8333 120,39.5C 121.087,41.9316 121.587,41.5983 121.5,38.5C 122.552,38.6495 123.552,38.4828 124.5,38C 121.332,37.4177 120.999,36.4177 123.5,35C 122.196,34.196 121.529,33.0293 121.5,31.5C 122.678,23.7914 124.012,16.1247 125.5,8.5C 125.674,5.57585 125.341,2.57585 124.5,-0.5 Z"/></g>
<g><path style="opacity:1" fill="#617cbe" d="M 140.5,-0.5 C 144.5,-0.5 148.5,-0.5 152.5,-0.5C 151.016,5.04538 150.016,10.5454 149.5,16C 150.876,18.5497 150.543,20.883 148.5,23C 151.259,25.4837 150.926,26.6503 147.5,26.5C 147.472,28.5824 148.139,30.4157 149.5,32C 148.584,32.3742 147.75,32.8742 147,33.5C 144.203,48.4591 138.537,62.4591 130,75.5C 128.798,77.553 128.464,79.553 129,81.5C 127.736,81.3601 126.569,81.3601 125.5,81.5C 126.243,82.1818 126.909,82.8485 127.5,83.5C 122.127,89.5738 118.293,96.5738 116,104.5C 113.734,111.049 109.234,113.549 102.5,112C 97.7964,109.654 93.463,106.82 89.5,103.5C 89.879,102.194 90.2124,100.861 90.5,99.5C 91.5,100.833 92.5,100.833 93.5,99.5C 93.8333,99.8333 94.1667,100.167 94.5,100.5C 93.8333,101.167 93.1667,101.833 92.5,102.5C 93.0016,103.521 93.6683,103.688 94.5,103C 96.8333,100.667 99.1667,98.3333 101.5,96C 101.167,95.6667 100.833,95.3333 100.5,95C 108.067,88.2561 114.4,80.4228 119.5,71.5C 118.572,70.2322 118.405,68.8989 119,67.5C 120.666,66.6598 120.833,67.1598 119.5,69C 120.332,69.6877 120.998,69.521 121.5,68.5C 127.225,57.9084 131.892,46.9084 135.5,35.5C 135.054,33.6318 134.721,31.7985 134.5,30C 135.583,28.4705 136.583,26.9705 137.5,25.5C 137.291,24.914 136.957,24.414 136.5,24C 138.275,17.6282 139.608,11.1282 140.5,4.5C 140.291,3.00551 139.624,1.83884 138.5,1C 139.416,0.721579 140.082,0.221579 140.5,-0.5 Z"/></g>
<g><path style="opacity:1" fill="#667abd" d="M 152.5,-0.5 C 156.833,-0.5 161.167,-0.5 165.5,-0.5C 165.119,0.931117 164.119,1.76445 162.5,2C 165.946,2.70387 165.946,4.0372 162.5,6C 163.167,6.33333 163.833,6.66667 164.5,7C 163.062,7.21893 161.729,7.71893 160.5,8.5C 161.262,8.9106 162.262,9.07727 163.5,9C 162.224,11.1662 162.557,13.1662 164.5,15C 163.262,17.715 163.262,20.3816 164.5,23C 164.167,23.1667 163.833,23.3333 163.5,23.5C 162.749,22.624 162.249,21.624 162,20.5C 161.667,20.8333 161.333,21.1667 161,21.5C 160.788,18.8735 161.121,16.8735 162,15.5C 160.5,16.6667 159,17.8333 157.5,19C 158.167,19.3333 158.833,19.6667 159.5,20C 160.061,21.5655 159.394,22.8989 157.5,24C 158.563,25.1882 159.897,25.6882 161.5,25.5C 161.33,26.8221 161.663,27.9887 162.5,29C 160.109,29.6914 160.109,30.6914 162.5,32C 161.5,34.3333 160.5,36.6667 159.5,39C 159.833,39.3333 160.167,39.6667 160.5,40C 158.602,40.8996 156.936,42.0663 155.5,43.5C 156.263,44.7193 157.263,45.7193 158.5,46.5C 157.235,49.7957 156.068,53.129 155,56.5C 154.426,58.492 153.259,59.992 151.5,61C 152.983,63.573 152.483,65.7397 150,67.5C 149.667,66.1667 149.333,64.8333 149,63.5C 148.308,64.0253 147.808,64.6919 147.5,65.5C 147.946,67.3682 148.279,69.2015 148.5,71C 146.875,71.8525 146.542,72.8525 147.5,74C 146.119,76.3636 145.119,78.8636 144.5,81.5C 138.532,79.7878 132.865,80.4545 127.5,83.5C 126.909,82.8485 126.243,82.1818 125.5,81.5C 126.569,81.3601 127.736,81.3601 129,81.5C 128.464,79.553 128.798,77.553 130,75.5C 138.537,62.4591 144.203,48.4591 147,33.5C 147.75,32.8742 148.584,32.3742 149.5,32C 148.139,30.4157 147.472,28.5824 147.5,26.5C 150.926,26.6503 151.259,25.4837 148.5,23C 150.543,20.883 150.876,18.5497 149.5,16C 150.016,10.5454 151.016,5.04538 152.5,-0.5 Z"/></g>
<g><path style="opacity:1" fill="#7373b6" d="M 178.5,-0.5 C 182.167,-0.5 185.833,-0.5 189.5,-0.5C 189.798,7.82487 189.798,16.1582 189.5,24.5C 186.914,33.5911 184.581,42.7577 182.5,52C 182.608,58.4994 179.942,64.8327 174.5,71C 175.517,72.0495 175.684,73.2161 175,74.5C 170.654,81.5216 167.154,88.8549 164.5,96.5C 161.833,94.5 159.5,92.1667 157.5,89.5C 157.643,87.7376 157.309,86.0709 156.5,84.5C 157.891,84.8914 158.891,84.0581 159.5,82C 159.043,81.586 158.709,81.086 158.5,80.5C 162.091,75.8181 164.758,70.6515 166.5,65C 166.98,60.4236 168.647,55.9236 171.5,51.5C 171.167,50.8333 170.833,50.1667 170.5,49.5C 171.167,49.1667 171.833,48.8333 172.5,48.5C 172.291,47.914 171.957,47.414 171.5,47C 174.164,42.0056 175.831,36.6723 176.5,31C 176.167,30 175.833,29 175.5,28C 176.167,27.6667 176.833,27.3333 177.5,27C 176.593,24.5228 176.926,21.6894 178.5,18.5C 176.009,17.4593 176.009,16.6259 178.5,16C 178.301,10.6258 178.301,5.12575 178.5,-0.5 Z"/></g>
<g><path style="opacity:1" fill="#7a70b4" d="M 189.5,-0.5 C 195.167,-0.5 200.833,-0.5 206.5,-0.5C 206.927,17.864 204.261,36.1974 198.5,54.5C 198.833,55.1667 199.167,55.8333 199.5,56.5C 195.359,66.6569 191.526,76.9902 188,87.5C 186.581,88.4601 185.081,89.2935 183.5,90C 184.416,90.2784 185.082,90.7784 185.5,91.5C 181.898,91.7498 178.565,92.7498 175.5,94.5C 173.648,98.7968 174.982,101.464 179.5,102.5C 178.986,104.868 177.82,106.868 176,108.5C 175.667,108.167 175.333,107.833 175,107.5C 174.51,108.793 174.343,110.127 174.5,111.5C 171.2,106.523 167.867,101.523 164.5,96.5C 167.154,88.8549 170.654,81.5216 175,74.5C 175.684,73.2161 175.517,72.0495 174.5,71C 179.942,64.8327 182.608,58.4994 182.5,52C 184.581,42.7577 186.914,33.5911 189.5,24.5C 189.798,16.1582 189.798,7.82487 189.5,-0.5 Z"/></g>
<g><path style="opacity:1" fill="#806cb1" d="M 206.5,-0.5 C 212.167,-0.5 217.833,-0.5 223.5,-0.5C 224.66,24.2148 220.66,48.0481 211.5,71C 210.198,76.8789 208.032,82.7122 205,88.5C 202.266,89.3617 202.099,90.195 204.5,91C 203.402,91.7697 203.402,92.603 204.5,93.5C 198.287,91.8984 191.954,91.2318 185.5,91.5C 185.082,90.7784 184.416,90.2784 183.5,90C 185.081,89.2935 186.581,88.4601 188,87.5C 191.526,76.9902 195.359,66.6569 199.5,56.5C 199.167,55.8333 198.833,55.1667 198.5,54.5C 204.261,36.1974 206.927,17.864 206.5,-0.5 Z"/></g>
<g><path style="opacity:1" fill="#8669ae" d="M 223.5,-0.5 C 228.833,-0.5 234.167,-0.5 239.5,-0.5C 240.389,1.90975 241.055,4.40975 241.5,7C 240.88,11.5071 240.213,16.0071 239.5,20.5C 240.412,25.1985 239.745,29.6985 237.5,34C 237.833,35 238.167,36 238.5,37C 236.659,45.0299 234.659,53.0299 232.5,61C 232.645,61.772 232.978,62.4387 233.5,63C 231.474,66.2683 229.974,69.7683 229,73.5C 225.887,75.0575 225.72,76.8909 228.5,79C 226.726,81.3675 225.059,83.8675 223.5,86.5C 224.025,87.1924 224.692,87.6924 225.5,88C 224.019,90.7623 222.353,93.429 220.5,96C 221.167,96.3333 221.833,96.6667 222.5,97C 221.619,97.7083 220.953,98.5416 220.5,99.5C 215.388,96.9072 210.055,94.9072 204.5,93.5C 203.402,92.603 203.402,91.7697 204.5,91C 202.099,90.195 202.266,89.3617 205,88.5C 208.032,82.7122 210.198,76.8789 211.5,71C 220.66,48.0481 224.66,24.2148 223.5,-0.5 Z"/></g>
<g><path style="opacity:1" fill="#8d66ac" d="M 239.5,-0.5 C 244.5,-0.5 249.5,-0.5 254.5,-0.5C 254.336,2.1873 254.503,4.85397 255,7.5C 255.333,7.16667 255.667,6.83333 256,6.5C 256.5,7.66667 257.333,8.5 258.5,9C 257.289,10.1131 257.289,11.2798 258.5,12.5C 257.369,13.6039 256.535,13.2705 256,11.5C 255.316,13.4789 255.816,15.1456 257.5,16.5C 256.726,17.7112 255.893,17.7112 255,16.5C 252.849,19.2162 253.016,21.7162 255.5,24C 254.09,24.3678 253.09,25.2011 252.5,26.5C 253.407,28.2559 253.407,30.0892 252.5,32C 252.667,32.8333 252.833,33.6667 253,34.5C 253.893,33.2888 254.726,33.2888 255.5,34.5C 254.372,35.2621 253.205,35.9288 252,36.5C 252.64,39.8035 252.474,43.1368 251.5,46.5C 252.552,46.3505 253.552,46.5172 254.5,47C 253.773,48.3988 253.273,49.8988 253,51.5C 252.781,50.062 252.281,48.7287 251.5,47.5C 251.167,48.1667 250.833,48.8333 250.5,49.5C 249.088,54.5707 247.755,59.404 246.5,64C 246.667,64.5 246.833,65 247,65.5C 248.049,64.4829 249.216,64.3162 250.5,65C 248.68,65.9794 247.513,67.4794 247,69.5C 246.667,68.5 246.333,67.5 246,66.5C 245.257,68.4406 245.424,70.2739 246.5,72C 245.584,72.3742 244.75,72.8742 244,73.5C 243.604,76.6964 242.438,79.5297 240.5,82C 241.86,83.9376 241.527,85.6043 239.5,87C 240.449,87.6172 241.282,87.4506 242,86.5C 242.483,87.448 242.649,88.448 242.5,89.5C 240.799,89.9662 239.299,89.9662 238,89.5C 236.682,93.4545 235.182,97.2878 233.5,101C 234.552,102.716 233.886,103.716 231.5,104C 234.015,104.939 234.682,106.439 233.5,108.5C 229.442,105.11 225.109,102.11 220.5,99.5C 220.953,98.5416 221.619,97.7083 222.5,97C 221.833,96.6667 221.167,96.3333 220.5,96C 222.353,93.429 224.019,90.7623 225.5,88C 224.692,87.6924 224.025,87.1924 223.5,86.5C 225.059,83.8675 226.726,81.3675 228.5,79C 225.72,76.8909 225.887,75.0575 229,73.5C 229.974,69.7683 231.474,66.2683 233.5,63C 232.978,62.4387 232.645,61.772 232.5,61C 234.659,53.0299 236.659,45.0299 238.5,37C 238.167,36 237.833,35 237.5,34C 239.745,29.6985 240.412,25.1985 239.5,20.5C 240.213,16.0071 240.88,11.5071 241.5,7C 241.055,4.40975 240.389,1.90975 239.5,-0.5 Z"/></g>
<g><path style="opacity:1" fill="#9362aa" d="M 254.5,-0.5 C 260.833,-0.5 267.167,-0.5 273.5,-0.5C 273.335,3.18174 273.501,6.84841 274,10.5C 276.466,7.75993 277.633,8.09326 277.5,11.5C 277.633,14.9067 276.466,15.2401 274,12.5C 273.929,23.2937 272.429,33.7937 269.5,44C 270.205,47.8042 270.538,51.6375 270.5,55.5C 269.5,55.5 268.5,55.5 267.5,55.5C 267.415,59.8485 267.082,64.1819 266.5,68.5C 266.464,70.9412 265.631,72.9412 264,74.5C 262.474,82.773 259.974,90.9396 256.5,99C 255.902,100.301 254.902,101.135 253.5,101.5C 252.513,104.768 252.18,108.102 252.5,111.5C 251.5,111.5 250.5,111.5 249.5,111.5C 249.336,114.187 249.503,116.854 250,119.5C 251.062,121.208 252.229,121.874 253.5,121.5C 251.635,122.666 249.968,122.333 248.5,120.5C 247.494,120.938 247.494,121.604 248.5,122.5C 248.043,123.298 247.376,123.631 246.5,123.5C 242.54,118.205 238.207,113.205 233.5,108.5C 234.682,106.439 234.015,104.939 231.5,104C 233.886,103.716 234.552,102.716 233.5,101C 235.182,97.2878 236.682,93.4545 238,89.5C 239.299,89.9662 240.799,89.9662 242.5,89.5C 242.649,88.448 242.483,87.448 242,86.5C 241.282,87.4506 240.449,87.6172 239.5,87C 241.527,85.6043 241.86,83.9376 240.5,82C 242.438,79.5297 243.604,76.6964 244,73.5C 244.75,72.8742 245.584,72.3742 246.5,72C 245.424,70.2739 245.257,68.4406 246,66.5C 246.333,67.5 246.667,68.5 247,69.5C 247.513,67.4794 248.68,65.9794 250.5,65C 249.216,64.3162 248.049,64.4829 247,65.5C 246.833,65 246.667,64.5 246.5,64C 247.755,59.404 249.088,54.5707 250.5,49.5C 250.833,48.8333 251.167,48.1667 251.5,47.5C 252.281,48.7287 252.781,50.062 253,51.5C 253.273,49.8988 253.773,48.3988 254.5,47C 253.552,46.5172 252.552,46.3505 251.5,46.5C 252.474,43.1368 252.64,39.8035 252,36.5C 253.205,35.9288 254.372,35.2621 255.5,34.5C 254.726,33.2888 253.893,33.2888 253,34.5C 252.833,33.6667 252.667,32.8333 252.5,32C 253.407,30.0892 253.407,28.2559 252.5,26.5C 253.09,25.2011 254.09,24.3678 255.5,24C 253.016,21.7162 252.849,19.2162 255,16.5C 255.893,17.7112 256.726,17.7112 257.5,16.5C 255.816,15.1456 255.316,13.4789 256,11.5C 256.535,13.2705 257.369,13.6039 258.5,12.5C 257.289,11.2798 257.289,10.1131 258.5,9C 257.333,8.5 256.5,7.66667 256,6.5C 255.667,6.83333 255.333,7.16667 255,7.5C 254.503,4.85397 254.336,2.1873 254.5,-0.5 Z"/></g>
<g><path style="opacity:1" fill="#995fa6" d="M 273.5,-0.5 C 279.5,-0.5 285.5,-0.5 291.5,-0.5C 292.111,16.6351 290.611,33.9685 287,51.5C 286.355,52.646 285.522,53.646 284.5,54.5C 283.795,68.8262 280.461,82.6596 274.5,96C 275.458,97.1475 275.125,98.1475 273.5,99C 274.258,100.364 273.758,101.531 272,102.5C 268.691,114.062 264.024,125.062 258,135.5C 255.978,136.802 254.478,138.468 253.5,140.5C 251.385,134.84 249.051,129.173 246.5,123.5C 247.376,123.631 248.043,123.298 248.5,122.5C 247.494,121.604 247.494,120.938 248.5,120.5C 249.968,122.333 251.635,122.666 253.5,121.5C 252.229,121.874 251.062,121.208 250,119.5C 249.503,116.854 249.336,114.187 249.5,111.5C 250.5,111.5 251.5,111.5 252.5,111.5C 252.18,108.102 252.513,104.768 253.5,101.5C 254.902,101.135 255.902,100.301 256.5,99C 259.974,90.9396 262.474,82.773 264,74.5C 265.631,72.9412 266.464,70.9412 266.5,68.5C 267.082,64.1819 267.415,59.8485 267.5,55.5C 268.5,55.5 269.5,55.5 270.5,55.5C 270.538,51.6375 270.205,47.8042 269.5,44C 272.429,33.7937 273.929,23.2937 274,12.5C 276.466,15.2401 277.633,14.9067 277.5,11.5C 277.633,8.09326 276.466,7.75993 274,10.5C 273.501,6.84841 273.335,3.18174 273.5,-0.5 Z"/></g>
<g><path style="opacity:1" fill="#9f5ca4" d="M 291.5,-0.5 C 294.167,-0.5 296.833,-0.5 299.5,-0.5C 299.5,23.8333 299.5,48.1667 299.5,72.5C 297.702,75.031 296.535,78.031 296,81.5C 295.257,83.4406 295.424,85.2739 296.5,87C 293.701,87.4391 292.701,88.7724 293.5,91C 292.57,92.1939 291.903,93.5272 291.5,95C 292.795,95.7025 294.128,96.3691 295.5,97C 289.866,97.6341 289.532,98.1341 294.5,98.5C 294.378,102.838 294.045,103.172 293.5,99.5C 290.402,99.4125 290.068,99.9125 292.5,101C 291.584,101.374 290.75,101.874 290,102.5C 289.099,105.071 287.766,107.404 286,109.5C 285.28,111.112 285.446,112.612 286.5,114C 284.216,115.363 284.049,116.863 286,118.5C 287.043,114.774 287.543,115.107 287.5,119.5C 286.022,119.238 284.689,119.571 283.5,120.5C 282.5,122.167 281.167,123.5 279.5,124.5C 278.355,125.776 278.355,127.109 279.5,128.5C 277.673,130.487 276.673,132.821 276.5,135.5C 277.552,135.351 278.552,135.517 279.5,136C 277.131,136.536 275.131,137.703 273.5,139.5C 271,144.5 268.5,149.5 266,154.5C 264.488,155.257 263.154,156.257 262,157.5C 258.91,163.104 257.243,169.104 257,175.5C 256.794,172.377 256.127,169.377 255,166.5C 254.986,168.598 255.153,170.431 255.5,172C 253.606,173.101 252.939,174.434 253.5,176C 252.552,176.483 251.552,176.649 250.5,176.5C 254.415,164.78 255.415,152.78 253.5,140.5C 254.478,138.468 255.978,136.802 258,135.5C 264.024,125.062 268.691,114.062 272,102.5C 273.758,101.531 274.258,100.364 273.5,99C 275.125,98.1475 275.458,97.1475 274.5,96C 280.461,82.6596 283.795,68.8262 284.5,54.5C 285.522,53.646 286.355,52.646 287,51.5C 290.611,33.9685 292.111,16.6351 291.5,-0.5 Z"/></g>
<g><path style="opacity:1" fill="#6c76ba" d="M 165.5,-0.5 C 169.833,-0.5 174.167,-0.5 178.5,-0.5C 178.301,5.12575 178.301,10.6258 178.5,16C 176.009,16.6259 176.009,17.4593 178.5,18.5C 176.926,21.6894 176.593,24.5228 177.5,27C 176.833,27.3333 176.167,27.6667 175.5,28C 175.833,29 176.167,30 176.5,31C 175.831,36.6723 174.164,42.0056 171.5,47C 171.957,47.414 172.291,47.914 172.5,48.5C 171.833,48.8333 171.167,49.1667 170.5,49.5C 170.833,50.1667 171.167,50.8333 171.5,51.5C 168.647,55.9236 166.98,60.4236 166.5,65C 164.758,70.6515 162.091,75.8181 158.5,80.5C 158.709,81.086 159.043,81.586 159.5,82C 158.891,84.0581 157.891,84.8914 156.5,84.5C 157.309,86.0709 157.643,87.7376 157.5,89.5C 153.669,86.0811 149.335,83.4144 144.5,81.5C 145.119,78.8636 146.119,76.3636 147.5,74C 146.542,72.8525 146.875,71.8525 148.5,71C 148.279,69.2015 147.946,67.3682 147.5,65.5C 147.808,64.6919 148.308,64.0253 149,63.5C 149.333,64.8333 149.667,66.1667 150,67.5C 152.483,65.7397 152.983,63.573 151.5,61C 153.259,59.992 154.426,58.492 155,56.5C 156.068,53.129 157.235,49.7957 158.5,46.5C 157.263,45.7193 156.263,44.7193 155.5,43.5C 156.936,42.0663 158.602,40.8996 160.5,40C 160.167,39.6667 159.833,39.3333 159.5,39C 160.5,36.6667 161.5,34.3333 162.5,32C 160.109,30.6914 160.109,29.6914 162.5,29C 161.663,27.9887 161.33,26.8221 161.5,25.5C 159.897,25.6882 158.563,25.1882 157.5,24C 159.394,22.8989 160.061,21.5655 159.5,20C 158.833,19.6667 158.167,19.3333 157.5,19C 159,17.8333 160.5,16.6667 162,15.5C 161.121,16.8735 160.788,18.8735 161,21.5C 161.333,21.1667 161.667,20.8333 162,20.5C 162.249,21.624 162.749,22.624 163.5,23.5C 163.833,23.3333 164.167,23.1667 164.5,23C 163.262,20.3816 163.262,17.715 164.5,15C 162.557,13.1662 162.224,11.1662 163.5,9C 162.262,9.07727 161.262,8.9106 160.5,8.5C 161.729,7.71893 163.062,7.21893 164.5,7C 163.833,6.66667 163.167,6.33333 162.5,6C 165.946,4.0372 165.946,2.70387 162.5,2C 164.119,1.76445 165.119,0.931117 165.5,-0.5 Z"/></g>
<g><path style="opacity:1" fill="#fafbfc" d="M 144.5,81.5 C 149.335,83.4144 153.669,86.0811 157.5,89.5C 159.5,92.1667 161.833,94.5 164.5,96.5C 167.867,101.523 171.2,106.523 174.5,111.5C 177.538,118.76 175.205,122.094 167.5,121.5C 165.167,117.5 162.833,113.5 160.5,109.5C 157.858,105.225 154.525,101.558 150.5,98.5C 146.302,92.0652 140.635,90.2319 133.5,93C 129.539,100.422 125.706,107.922 122,115.5C 118.243,120.128 113.41,122.795 107.5,123.5C 104.784,123.322 102.117,122.822 99.5,122C 92.5018,118.503 85.8352,114.503 79.5,110C 70.9815,108.827 66.1482,112.66 65,121.5C 63.8359,129.459 63.3359,137.459 63.5,145.5C 64.2833,152.718 61.2833,155.051 54.5,152.5C 52.7284,144.628 52.0617,136.628 52.5,128.5C 53.491,123.956 54.491,119.289 55.5,114.5C 57.2258,112.058 58.7258,109.391 60,106.5C 65.4458,98.8595 72.6125,96.5262 81.5,99.5C 84.2895,100.648 86.9561,101.981 89.5,103.5C 93.463,106.82 97.7964,109.654 102.5,112C 109.234,113.549 113.734,111.049 116,104.5C 118.293,96.5738 122.127,89.5738 127.5,83.5C 132.865,80.4545 138.532,79.7878 144.5,81.5 Z"/></g>
<g><path style="opacity:1" fill="#fcfbfc" d="M 185.5,91.5 C 191.954,91.2318 198.287,91.8984 204.5,93.5C 210.055,94.9072 215.388,96.9072 220.5,99.5C 225.109,102.11 229.442,105.11 233.5,108.5C 238.207,113.205 242.54,118.205 246.5,123.5C 249.051,129.173 251.385,134.84 253.5,140.5C 255.415,152.78 254.415,164.78 250.5,176.5C 245.459,189.198 237.459,199.531 226.5,207.5C 218.258,212.784 209.258,216.117 199.5,217.5C 188.865,218.404 178.198,218.737 167.5,218.5C 162.167,218.5 156.833,218.5 151.5,218.5C 144.167,218.5 136.833,218.5 129.5,218.5C 118.167,218.5 106.833,218.5 95.5,218.5C 86.4938,218.666 77.4938,218.5 68.5,218C 65.049,217.105 61.7157,215.938 58.5,214.5C 53.0485,210.388 48.7152,205.388 45.5,199.5C 44.0974,194.613 43.4307,189.613 43.5,184.5C 44.2967,180.777 45.2967,177.11 46.5,173.5C 56.435,159.202 69.7684,154.535 86.5,159.5C 89.6612,160.913 92.6612,162.58 95.5,164.5C 98.7452,168.812 97.9118,171.812 93,173.5C 88.7176,172.113 84.5509,170.28 80.5,168C 61.4865,166.681 52.9865,175.514 55,194.5C 55.6972,196.584 56.8639,198.251 58.5,199.5C 61.0942,204.066 65.0942,206.733 70.5,207.5C 80.992,208.659 91.6586,208.825 102.5,208C 101.934,207.005 101.267,206.172 100.5,205.5C 96.9079,198.654 95.5746,191.321 96.5,183.5C 102.657,168.409 113.991,161.409 130.5,162.5C 135.037,164.121 139.371,166.121 143.5,168.5C 148.259,174.923 146.592,178.09 138.5,178C 126.444,169.303 116.277,171.136 108,183.5C 105.095,195.19 109.262,203.356 120.5,208C 132.167,208.667 143.833,208.667 155.5,208C 146.373,194.284 148.04,181.951 160.5,171C 163.726,168.425 167.393,166.925 171.5,166.5C 174.5,166.5 177.5,166.5 180.5,166.5C 180.737,165.209 180.404,164.209 179.5,163.5C 179.308,151.176 184.975,142.676 196.5,138C 200.152,137.501 203.818,137.335 207.5,137.5C 210.836,139.527 211.336,142.193 209,145.5C 204.467,146.819 199.967,148.319 195.5,150C 188.714,157.974 188.88,165.807 196,173.5C 196.49,174.793 196.657,176.127 196.5,177.5C 196.033,180.297 194.367,181.631 191.5,181.5C 189.391,180.609 187.391,179.442 185.5,178C 174.665,173.716 166.498,176.549 161,186.5C 158.909,195.424 161.742,202.091 169.5,206.5C 170.473,206.987 171.473,207.487 172.5,208C 180.677,208.823 188.677,208.656 196.5,207.5C 221.018,203.482 236.518,189.482 243,165.5C 243.667,158.167 243.667,150.833 243,143.5C 242.155,141.389 241.322,139.389 240.5,137.5C 240.443,136.391 240.11,135.391 239.5,134.5C 234.949,123.283 227.283,114.95 216.5,109.5C 211.763,106.14 206.429,104.14 200.5,103.5C 193.687,102.509 186.687,102.175 179.5,102.5C 174.982,101.464 173.648,98.7968 175.5,94.5C 178.565,92.7498 181.898,91.7498 185.5,91.5 Z"/></g>
<g><path style="opacity:1" fill="#7373b6" d="M 150.5,98.5 C 154.525,101.558 157.858,105.225 160.5,109.5C 158.692,110.317 157.192,109.65 156,107.5C 155.333,108.833 154.667,108.833 154,107.5C 153.535,108.931 152.701,110.097 151.5,111C 152.535,112.507 152.368,114.007 151,115.5C 147.457,119.675 143.624,123.509 139.5,127C 143.185,127.914 142.852,128.581 138.5,129C 137.072,131.185 135.405,133.185 133.5,135C 134.167,135.333 134.833,135.667 135.5,136C 132.048,136.892 129.048,138.558 126.5,141C 125.167,142 125.167,143 126.5,144C 125.24,145.113 124.073,145.28 123,144.5C 121.616,147.11 119.449,148.61 116.5,149C 115.696,150.771 114.529,152.271 113,153.5C 112.667,152.833 112.333,152.167 112,151.5C 110.954,153.09 109.787,154.59 108.5,156C 104.977,156.662 103.31,158.495 103.5,161.5C 101.009,163.058 98.3426,164.058 95.5,164.5C 92.6612,162.58 89.6612,160.913 86.5,159.5C 86.3893,158.883 86.056,158.383 85.5,158C 87.6051,156.807 89.2718,155.14 90.5,153C 101.369,148.141 110.869,141.307 119,132.5C 119.333,132.833 119.667,133.167 120,133.5C 125.137,127.609 130.47,121.943 136,116.5C 140.431,110.41 144.431,104.076 148,97.5C 148.342,99.6192 149.175,99.9526 150.5,98.5 Z"/></g>
<g><path style="opacity:1" fill="#806db2" d="M 179.5,102.5 C 186.687,102.175 193.687,102.509 200.5,103.5C 199.325,103.281 198.325,103.614 197.5,104.5C 192.738,112.961 187.571,121.627 182,130.5C 180.989,131.337 179.822,131.67 178.5,131.5C 178.628,133.655 178.128,135.655 177,137.5C 174.54,138.958 172.373,140.791 170.5,143C 170.833,143.333 171.167,143.667 171.5,144C 165.656,150.676 159.656,157.176 153.5,163.5C 150.37,165.732 147.037,167.398 143.5,168.5C 139.371,166.121 135.037,164.121 130.5,162.5C 129.683,160.692 130.35,159.192 132.5,158C 133.448,157.517 134.448,157.351 135.5,157.5C 135.5,156.167 135.5,154.833 135.5,153.5C 136.552,153.649 137.552,153.483 138.5,153C 140.964,150.475 143.298,147.808 145.5,145C 149.3,143.867 151.8,141.367 153,137.5C 154.708,135.457 156.708,133.79 159,132.5C 161.286,128.384 164.12,124.717 167.5,121.5C 175.205,122.094 177.538,118.76 174.5,111.5C 174.343,110.127 174.51,108.793 175,107.5C 175.333,107.833 175.667,108.167 176,108.5C 177.82,106.868 178.986,104.868 179.5,102.5 Z"/></g>
<g><path style="opacity:1" fill="#a759a1" d="M 299.5,108.5 C 299.5,119.167 299.5,129.833 299.5,140.5C 297.712,140.215 296.045,140.548 294.5,141.5C 294.709,142.086 295.043,142.586 295.5,143C 293.833,144 292.5,145.333 291.5,147C 291.833,147.333 292.167,147.667 292.5,148C 291.139,149.584 290.472,151.418 290.5,153.5C 289.5,153.5 288.5,153.5 287.5,153.5C 287.528,155.582 286.861,157.416 285.5,159C 286.167,159.333 286.833,159.667 287.5,160C 282.514,162.201 282.514,163.868 287.5,165C 285.5,165.333 283.5,165.667 281.5,166C 278.787,169.924 276.453,174.091 274.5,178.5C 273.335,179.584 272.002,180.417 270.5,181C 270.957,181.414 271.291,181.914 271.5,182.5C 270.14,186.05 268.14,189.217 265.5,192C 266.833,192 268.167,192 269.5,192C 267.458,195.88 265.625,196.047 264,192.5C 262.956,194.715 262.29,197.048 262,199.5C 261.667,199.167 261.333,198.833 261,198.5C 256.504,202.983 252.67,207.483 249.5,212C 250.5,212.333 251.5,212.667 252.5,213C 250.99,213.85 249.49,214.683 248,215.5C 246.043,214.116 245.043,214.783 245,217.5C 240.052,222.39 235.219,227.39 230.5,232.5C 229.534,234.396 229.201,236.396 229.5,238.5C 228.178,238.67 227.011,238.337 226,237.5C 224.556,239.155 222.722,239.822 220.5,239.5C 220.813,242.247 220.48,244.914 219.5,247.5C 218.719,246.271 218.219,244.938 218,243.5C 214.027,247.228 210.194,251.061 206.5,255C 204.475,256.677 202.141,257.677 199.5,258C 200.949,259.117 202.616,259.784 204.5,260C 201.774,260.182 199.107,260.682 196.5,261.5C 197.325,262.386 198.325,262.719 199.5,262.5C 199.33,263.822 199.663,264.989 200.5,266C 200,266.5 199.5,267 199,267.5C 198.667,266.167 198.333,264.833 198,263.5C 197,264.833 196,264.833 195,263.5C 193.933,264.191 192.766,264.691 191.5,265C 192.956,265.423 193.456,266.256 193,267.5C 191.407,265.715 189.907,265.548 188.5,267C 190.221,267.739 191.887,268.573 193.5,269.5C 191.836,270.223 190.169,269.89 188.5,268.5C 186.742,269.128 185.242,270.128 184,271.5C 182.853,270.542 181.853,270.875 181,272.5C 180.667,274.5 180.333,276.5 180,278.5C 179,273.167 178,273.167 177,278.5C 176.572,273.502 175.739,273.335 174.5,278C 173.552,278.483 172.552,278.649 171.5,278.5C 171.62,281.205 170.62,281.872 168.5,280.5C 165.543,282.812 162.209,284.312 158.5,285C 157.833,286 157.167,287 156.5,288C 152.757,288.951 149.59,290.785 147,293.5C 146.667,293.167 146.333,292.833 146,292.5C 144.103,294.399 141.936,295.899 139.5,297C 140.252,297.671 140.586,298.504 140.5,299.5C 129.833,299.5 119.167,299.5 108.5,299.5C 109.583,295.965 111.916,293.965 115.5,293.5C 119.407,294.811 123.407,295.478 127.5,295.5C 127.187,292.753 127.52,290.086 128.5,287.5C 129.719,288.263 130.719,289.263 131.5,290.5C 133.422,289.04 134.089,287.373 133.5,285.5C 135.214,284.391 135.881,285.058 135.5,287.5C 136.552,287.649 137.552,287.483 138.5,287C 139.333,284.833 140.833,283.333 143,282.5C 143.483,281.552 143.649,280.552 143.5,279.5C 146.459,279.65 148.959,278.65 151,276.5C 151.333,277.167 151.667,277.833 152,278.5C 154.447,275.968 157.114,273.634 160,271.5C 160.72,273.255 161.887,274.089 163.5,274C 164.815,272.605 164.481,271.605 162.5,271C 163.763,268.614 165.597,266.781 168,265.5C 168.72,267.255 169.887,268.089 171.5,268C 174.158,264.343 177.158,261.009 180.5,258C 183.073,257.806 185.739,257.139 188.5,256C 186.314,255.396 186.148,254.23 188,252.5C 189.753,251.373 191.587,250.373 193.5,249.5C 194.711,248.726 194.711,247.893 193.5,247C 194.549,246.508 195.549,246.674 196.5,247.5C 197.806,246.088 198.64,244.421 199,242.5C 199.333,243.167 199.667,243.833 200,244.5C 202.167,243.667 203.667,242.167 204.5,240C 205.448,239.517 206.448,239.351 207.5,239.5C 207.5,238.167 207.5,236.833 207.5,235.5C 210.167,235.5 212.833,235.5 215.5,235.5C 215.5,234.167 215.5,232.833 215.5,231.5C 216.833,231.5 218.167,231.5 219.5,231.5C 219.184,228.022 219.684,224.688 221,221.5C 221.308,222.308 221.808,222.975 222.5,223.5C 223.7,222.469 225.034,221.635 226.5,221C 230.506,215.827 235.173,211.327 240.5,207.5C 241.466,205.604 241.799,203.604 241.5,201.5C 244.881,202.112 247.214,200.946 248.5,198C 248.095,197.055 247.428,196.388 246.5,196C 248.752,194.913 250.085,193.079 250.5,190.5C 252.645,191.682 252.645,193.182 250.5,195C 251.025,195.692 251.692,196.192 252.5,196.5C 254.235,193.728 254.901,190.895 254.5,188C 255.613,186.606 256.947,185.439 258.5,184.5C 257.624,183.749 256.624,183.249 255.5,183C 258.183,180.153 261.183,177.653 264.5,175.5C 265.466,173.604 265.799,171.604 265.5,169.5C 267.5,169.5 269.5,169.5 271.5,169.5C 271.142,167.08 270.309,165.08 269,163.5C 271.203,163.761 273.37,163.261 275.5,162C 274.437,160.812 273.103,160.312 271.5,160.5C 272.139,158.24 273.306,156.24 275,154.5C 276.171,153.107 277.671,152.273 279.5,152C 278.376,151.751 277.376,151.251 276.5,150.5C 278.667,148.167 280.833,145.833 283,143.5C 283.497,140.854 283.664,138.187 283.5,135.5C 287.513,134.66 290.18,132.16 291.5,128C 289.866,127.506 288.199,127.34 286.5,127.5C 286.351,126.448 286.517,125.448 287,124.5C 287.718,125.451 288.551,125.617 289.5,125C 291.526,122 294.026,119.5 297,117.5C 297.688,116.668 297.521,116.002 296.5,115.5C 295.476,116.853 294.143,117.52 292.5,117.5C 292.5,116.167 292.5,114.833 292.5,113.5C 294.429,113.769 296.095,113.269 297.5,112C 296.027,111.29 295.36,110.124 295.5,108.5C 296.833,108.5 298.167,108.5 299.5,108.5 Z"/></g>
<g><path style="opacity:1" fill="#5a7fc1" d="M 55.5,114.5 C 54.491,119.289 53.491,123.956 52.5,128.5C 48.0152,130.796 43.3485,132.796 38.5,134.5C 37.914,134.291 37.414,133.957 37,133.5C 33.4752,135.512 29.6419,136.846 25.5,137.5C 24.3527,137.182 23.5194,136.516 23,135.5C 21.0162,137.613 18.5162,138.78 15.5,139C 10.1924,139.83 4.85908,140.33 -0.5,140.5C -0.5,135.5 -0.5,130.5 -0.5,125.5C 4.62256,127.081 9.95589,127.748 15.5,127.5C 15.3505,126.448 15.5172,125.448 16,124.5C 16.6667,128.5 17.3333,128.5 18,124.5C 21.9911,122.362 26.1577,121.696 30.5,122.5C 35.5952,119.676 40.9285,117.343 46.5,115.5C 47.1924,114.975 47.6924,114.308 48,113.5C 48.3076,114.308 48.8076,114.975 49.5,115.5C 50.5,114.167 51.5,112.833 52.5,111.5C 53.1924,112.025 53.6924,112.692 54,113.5C 55.1068,112.288 55.6068,112.621 55.5,114.5 Z"/></g>
<g><path style="opacity:1" fill="#657bbe" d="M 107.5,123.5 C 106.047,124.825 106.381,125.658 108.5,126C 103.779,128.537 99.1121,131.37 94.5,134.5C 93.1575,133.098 92.3242,133.431 92,135.5C 91.195,133.099 90.3617,133.266 89.5,136C 84.8073,138.67 80.1407,141.337 75.5,144C 76.1667,144.333 76.8333,144.667 77.5,145C 76.1667,145.667 74.8333,145.667 73.5,145C 74.6537,144.086 74.487,143.253 73,142.5C 71.331,144.169 70.4977,146.169 70.5,148.5C 68.549,148.227 67.049,148.893 66,150.5C 65.0147,148.825 64.1814,147.158 63.5,145.5C 63.3359,137.459 63.8359,129.459 65,121.5C 66.1482,112.66 70.9815,108.827 79.5,110C 85.8352,114.503 92.5018,118.503 99.5,122C 102.117,122.822 104.784,123.322 107.5,123.5 Z"/></g>
<g><path style="opacity:1" fill="#9562a9" d="M 239.5,134.5 C 240.11,135.391 240.443,136.391 240.5,137.5C 237.292,139.606 234.292,141.94 231.5,144.5C 232.376,145.251 233.376,145.751 234.5,146C 230.67,147.664 228.17,150.497 227,154.5C 222.618,157.629 220.785,161.962 221.5,167.5C 219.833,167.5 218.167,167.5 216.5,167.5C 216.649,168.552 216.483,169.552 216,170.5C 214.817,169.269 213.651,169.269 212.5,170.5C 213.5,171.167 214.5,171.833 215.5,172.5C 212.988,173.795 210.321,174.461 207.5,174.5C 207.662,176.527 207.495,178.527 207,180.5C 201.586,184.02 197.586,188.687 195,194.5C 192.108,195.842 190.775,198.175 191,201.5C 190.29,200.027 189.124,199.36 187.5,199.5C 187.432,205.883 186.098,206.55 183.5,201.5C 182.408,202.831 181.074,203.664 179.5,204C 180.167,205 180.833,206 181.5,207C 186.489,207.499 191.489,207.666 196.5,207.5C 188.677,208.656 180.677,208.823 172.5,208C 171.473,207.487 170.473,206.987 169.5,206.5C 169.33,205.178 169.663,204.011 170.5,203C 169.833,202.667 169.167,202.333 168.5,202C 170.285,200.837 172.285,200.17 174.5,200C 173.692,199.692 173.025,199.192 172.5,198.5C 173.522,197.646 174.355,196.646 175,195.5C 175.333,196.5 175.667,197.5 176,198.5C 177.018,196.102 178.185,193.769 179.5,191.5C 182.517,193.189 185.017,192.189 187,188.5C 187.333,186.833 187.667,185.167 188,183.5C 189.302,182.915 190.469,182.249 191.5,181.5C 194.367,181.631 196.033,180.297 196.5,177.5C 197.309,175.708 197.809,173.708 198,171.5C 199.667,169.833 201.333,168.167 203,166.5C 204.873,167.089 206.54,166.422 208,164.5C 209.044,162.285 209.71,159.952 210,157.5C 210.667,158.833 211.333,158.833 212,157.5C 212.186,155.1 212.686,152.766 213.5,150.5C 215.118,151.589 216.618,151.589 218,150.5C 220.919,146.847 223.086,143.181 224.5,139.5C 223.071,137.669 222.571,135.669 223,133.5C 224.217,134.386 225.551,135.386 227,136.5C 227.692,135.975 228.192,135.308 228.5,134.5C 228.37,132.577 228.036,130.744 227.5,129C 232.317,124.825 234.317,125.991 233.5,132.5C 235.589,133.767 237.589,134.434 239.5,134.5 Z"/></g>
<g><path style="opacity:1" fill="#9065ab" d="M 216.5,109.5 C 227.283,114.95 234.949,123.283 239.5,134.5C 237.589,134.434 235.589,133.767 233.5,132.5C 234.317,125.991 232.317,124.825 227.5,129C 228.036,130.744 228.37,132.577 228.5,134.5C 228.192,135.308 227.692,135.975 227,136.5C 225.551,135.386 224.217,134.386 223,133.5C 222.571,135.669 223.071,137.669 224.5,139.5C 223.086,143.181 220.919,146.847 218,150.5C 216.618,151.589 215.118,151.589 213.5,150.5C 212.686,152.766 212.186,155.1 212,157.5C 211.333,158.833 210.667,158.833 210,157.5C 209.71,159.952 209.044,162.285 208,164.5C 206.54,166.422 204.873,167.089 203,166.5C 201.333,168.167 199.667,169.833 198,171.5C 197.809,173.708 197.309,175.708 196.5,177.5C 196.657,176.127 196.49,174.793 196,173.5C 188.88,165.807 188.714,157.974 195.5,150C 199.967,148.319 204.467,146.819 209,145.5C 211.336,142.193 210.836,139.527 207.5,137.5C 204.359,136.679 201.025,136.179 197.5,136C 198.5,135.667 199.5,135.333 200.5,135C 199.549,134.282 199.383,133.449 200,132.5C 201.586,131.624 203.086,130.624 204.5,129.5C 203.18,126.943 204.013,125.276 207,124.5C 208.766,119.802 210.933,115.302 213.5,111C 213.167,110.667 212.833,110.333 212.5,110C 214.019,110.331 215.352,110.164 216.5,109.5 Z"/></g>
<g><path style="opacity:1" fill="#9a60a6" d="M 240.5,137.5 C 241.322,139.389 242.155,141.389 243,143.5C 243.667,150.833 243.667,158.167 243,165.5C 236.518,189.482 221.018,203.482 196.5,207.5C 191.489,207.666 186.489,207.499 181.5,207C 180.833,206 180.167,205 179.5,204C 181.074,203.664 182.408,202.831 183.5,201.5C 186.098,206.55 187.432,205.883 187.5,199.5C 189.124,199.36 190.29,200.027 191,201.5C 190.775,198.175 192.108,195.842 195,194.5C 197.586,188.687 201.586,184.02 207,180.5C 207.495,178.527 207.662,176.527 207.5,174.5C 210.321,174.461 212.988,173.795 215.5,172.5C 214.5,171.833 213.5,171.167 212.5,170.5C 213.651,169.269 214.817,169.269 216,170.5C 216.483,169.552 216.649,168.552 216.5,167.5C 218.167,167.5 219.833,167.5 221.5,167.5C 220.785,161.962 222.618,157.629 227,154.5C 228.17,150.497 230.67,147.664 234.5,146C 233.376,145.751 232.376,145.251 231.5,144.5C 234.292,141.94 237.292,139.606 240.5,137.5 Z"/></g>
<g><path style="opacity:1" fill="#ab569f" d="M 299.5,140.5 C 299.5,152.167 299.5,163.833 299.5,175.5C 298.5,175.5 297.5,175.5 296.5,175.5C 296.649,176.552 296.483,177.552 296,178.5C 291.319,181.534 288.652,185.867 288,191.5C 287.667,191.167 287.333,190.833 287,190.5C 286.138,192.087 285.471,193.754 285,195.5C 280.883,199.628 277.05,204.128 273.5,209C 272.391,211.047 271.724,213.213 271.5,215.5C 267.163,216.339 264.663,219.006 264,223.5C 260.964,227.196 257.297,230.196 253,232.5C 251.961,234.746 250.794,236.913 249.5,239C 248.207,239.49 246.873,239.657 245.5,239.5C 245.167,243.167 243.167,245.167 239.5,245.5C 239.5,246.833 239.5,248.167 239.5,249.5C 236.159,248.843 234.159,250.176 233.5,253.5C 228.495,258.613 222.661,263.613 216,268.5C 215.517,269.448 215.351,270.448 215.5,271.5C 213.488,270.986 211.488,270.82 209.5,271C 211.957,272.154 211.957,273.488 209.5,275C 198.542,282.486 187.208,289.486 175.5,296C 173.937,296.759 172.937,297.926 172.5,299.5C 161.833,299.5 151.167,299.5 140.5,299.5C 140.586,298.504 140.252,297.671 139.5,297C 141.936,295.899 144.103,294.399 146,292.5C 146.333,292.833 146.667,293.167 147,293.5C 149.59,290.785 152.757,288.951 156.5,288C 157.167,287 157.833,286 158.5,285C 162.209,284.312 165.543,282.812 168.5,280.5C 170.62,281.872 171.62,281.205 171.5,278.5C 172.552,278.649 173.552,278.483 174.5,278C 175.739,273.335 176.572,273.502 177,278.5C 178,273.167 179,273.167 180,278.5C 180.333,276.5 180.667,274.5 181,272.5C 181.853,270.875 182.853,270.542 184,271.5C 185.242,270.128 186.742,269.128 188.5,268.5C 190.169,269.89 191.836,270.223 193.5,269.5C 191.887,268.573 190.221,267.739 188.5,267C 189.907,265.548 191.407,265.715 193,267.5C 193.456,266.256 192.956,265.423 191.5,265C 192.766,264.691 193.933,264.191 195,263.5C 196,264.833 197,264.833 198,263.5C 198.333,264.833 198.667,266.167 199,267.5C 199.5,267 200,266.5 200.5,266C 199.663,264.989 199.33,263.822 199.5,262.5C 198.325,262.719 197.325,262.386 196.5,261.5C 199.107,260.682 201.774,260.182 204.5,260C 202.616,259.784 200.949,259.117 199.5,258C 202.141,257.677 204.475,256.677 206.5,255C 210.194,251.061 214.027,247.228 218,243.5C 218.219,244.938 218.719,246.271 219.5,247.5C 220.48,244.914 220.813,242.247 220.5,239.5C 222.722,239.822 224.556,239.155 226,237.5C 227.011,238.337 228.178,238.67 229.5,238.5C 229.201,236.396 229.534,234.396 230.5,232.5C 235.219,227.39 240.052,222.39 245,217.5C 245.043,214.783 246.043,214.116 248,215.5C 249.49,214.683 250.99,213.85 252.5,213C 251.5,212.667 250.5,212.333 249.5,212C 252.67,207.483 256.504,202.983 261,198.5C 261.333,198.833 261.667,199.167 262,199.5C 262.29,197.048 262.956,194.715 264,192.5C 265.625,196.047 267.458,195.88 269.5,192C 268.167,192 266.833,192 265.5,192C 268.14,189.217 270.14,186.05 271.5,182.5C 271.291,181.914 270.957,181.414 270.5,181C 272.002,180.417 273.335,179.584 274.5,178.5C 276.453,174.091 278.787,169.924 281.5,166C 283.5,165.667 285.5,165.333 287.5,165C 282.514,163.868 282.514,162.201 287.5,160C 286.833,159.667 286.167,159.333 285.5,159C 286.861,157.416 287.528,155.582 287.5,153.5C 288.5,153.5 289.5,153.5 290.5,153.5C 290.472,151.418 291.139,149.584 292.5,148C 292.167,147.667 291.833,147.333 291.5,147C 292.5,145.333 293.833,144 295.5,143C 295.043,142.586 294.709,142.086 294.5,141.5C 296.045,140.548 297.712,140.215 299.5,140.5 Z"/></g>
<g><path style="opacity:1" fill="#657bbd" d="M 52.5,128.5 C 52.0617,136.628 52.7284,144.628 54.5,152.5C 53.733,155.411 52.233,156.078 50,154.5C 48.7129,158.543 46.5462,159.209 43.5,156.5C 42.2888,157.274 42.2888,158.107 43.5,159C 39.8586,160.269 36.1919,161.436 32.5,162.5C 29.3013,161.201 26.1347,161.201 23,162.5C 22.6924,161.692 22.1924,161.025 21.5,160.5C 19.5855,161.709 17.7522,163.042 16,164.5C 15.5,164.333 15,164.167 14.5,164C 15.3366,162.989 15.67,161.822 15.5,160.5C 13.1667,160.5 10.8333,160.5 8.5,160.5C 8.72292,163.114 7.55625,164.781 5,165.5C 4.66667,164.833 4.33333,164.167 4,163.5C 3.27465,165.158 2.10799,165.658 0.5,165C 2.28261,163.933 2.78261,162.433 2,160.5C 1.58309,161.756 0.749754,162.423 -0.5,162.5C -0.5,155.167 -0.5,147.833 -0.5,140.5C 4.85908,140.33 10.1924,139.83 15.5,139C 18.5162,138.78 21.0162,137.613 23,135.5C 23.5194,136.516 24.3527,137.182 25.5,137.5C 29.6419,136.846 33.4752,135.512 37,133.5C 37.414,133.957 37.914,134.291 38.5,134.5C 43.3485,132.796 48.0152,130.796 52.5,128.5 Z"/></g>
<g><path style="opacity:1" fill="#6c76ba" d="M 150.5,98.5 C 149.175,99.9526 148.342,99.6192 148,97.5C 144.431,104.076 140.431,110.41 136,116.5C 130.47,121.943 125.137,127.609 120,133.5C 119.667,133.167 119.333,132.833 119,132.5C 110.869,141.307 101.369,148.141 90.5,153C 89.2718,155.14 87.6051,156.807 85.5,158C 86.056,158.383 86.3893,158.883 86.5,159.5C 69.7684,154.535 56.435,159.202 46.5,173.5C 44.4176,173.528 42.5843,172.861 41,171.5C 38.0038,174.999 34.3371,175.999 30,174.5C 26.2236,176.833 22.0569,178.167 17.5,178.5C 11.6542,179.713 5.65424,179.713 -0.5,178.5C -0.5,173.167 -0.5,167.833 -0.5,162.5C 0.749754,162.423 1.58309,161.756 2,160.5C 2.78261,162.433 2.28261,163.933 0.5,165C 2.10799,165.658 3.27465,165.158 4,163.5C 4.33333,164.167 4.66667,164.833 5,165.5C 7.55625,164.781 8.72292,163.114 8.5,160.5C 10.8333,160.5 13.1667,160.5 15.5,160.5C 15.67,161.822 15.3366,162.989 14.5,164C 15,164.167 15.5,164.333 16,164.5C 17.7522,163.042 19.5855,161.709 21.5,160.5C 22.1924,161.025 22.6924,161.692 23,162.5C 26.1347,161.201 29.3013,161.201 32.5,162.5C 36.1919,161.436 39.8586,160.269 43.5,159C 42.2888,158.107 42.2888,157.274 43.5,156.5C 46.5462,159.209 48.7129,158.543 50,154.5C 52.233,156.078 53.733,155.411 54.5,152.5C 61.2833,155.051 64.2833,152.718 63.5,145.5C 64.1814,147.158 65.0147,148.825 66,150.5C 67.049,148.893 68.549,148.227 70.5,148.5C 70.4977,146.169 71.331,144.169 73,142.5C 74.487,143.253 74.6537,144.086 73.5,145C 74.8333,145.667 76.1667,145.667 77.5,145C 76.8333,144.667 76.1667,144.333 75.5,144C 80.1407,141.337 84.8073,138.67 89.5,136C 90.3617,133.266 91.195,133.099 92,135.5C 92.3242,133.431 93.1575,133.098 94.5,134.5C 99.1121,131.37 103.779,128.537 108.5,126C 106.381,125.658 106.047,124.825 107.5,123.5C 113.41,122.795 118.243,120.128 122,115.5C 125.706,107.922 129.539,100.422 133.5,93C 140.635,90.2319 146.302,92.0652 150.5,98.5 Z"/></g>
<g><path style="opacity:1" fill="#cdbedb" d="M 179.5,163.5 C 180.404,164.209 180.737,165.209 180.5,166.5C 177.5,166.5 174.5,166.5 171.5,166.5C 174.477,166.098 177.143,165.098 179.5,163.5 Z"/></g>
<g><path style="opacity:1" fill="#7373b6" d="M 46.5,173.5 C 45.2967,177.11 44.2967,180.777 43.5,184.5C 28.8999,188.301 14.2332,190.301 -0.5,190.5C -0.5,186.5 -0.5,182.5 -0.5,178.5C 5.65424,179.713 11.6542,179.713 17.5,178.5C 22.0569,178.167 26.2236,176.833 30,174.5C 34.3371,175.999 38.0038,174.999 41,171.5C 42.5843,172.861 44.4176,173.528 46.5,173.5 Z"/></g>
<g><path style="opacity:1" fill="#7a70b4" d="M 160.5,109.5 C 162.833,113.5 165.167,117.5 167.5,121.5C 164.12,124.717 161.286,128.384 159,132.5C 156.708,133.79 154.708,135.457 153,137.5C 151.8,141.367 149.3,143.867 145.5,145C 143.298,147.808 140.964,150.475 138.5,153C 137.552,153.483 136.552,153.649 135.5,153.5C 135.5,154.833 135.5,156.167 135.5,157.5C 134.448,157.351 133.448,157.517 132.5,158C 130.35,159.192 129.683,160.692 130.5,162.5C 113.991,161.409 102.657,168.409 96.5,183.5C 96.631,182.761 96.4643,182.094 96,181.5C 93.8635,184.211 91.1968,186.211 88,187.5C 87.586,187.043 87.086,186.709 86.5,186.5C 84.3428,188.412 82.0094,190.079 79.5,191.5C 74.0758,192.704 68.7425,194.204 63.5,196C 61.2404,196.549 59.5738,197.716 58.5,199.5C 56.8639,198.251 55.6972,196.584 55,194.5C 52.9865,175.514 61.4865,166.681 80.5,168C 84.5509,170.28 88.7176,172.113 93,173.5C 97.9118,171.812 98.7452,168.812 95.5,164.5C 98.3426,164.058 101.009,163.058 103.5,161.5C 103.31,158.495 104.977,156.662 108.5,156C 109.787,154.59 110.954,153.09 112,151.5C 112.333,152.167 112.667,152.833 113,153.5C 114.529,152.271 115.696,150.771 116.5,149C 119.449,148.61 121.616,147.11 123,144.5C 124.073,145.28 125.24,145.113 126.5,144C 125.167,143 125.167,142 126.5,141C 129.048,138.558 132.048,136.892 135.5,136C 134.833,135.667 134.167,135.333 133.5,135C 135.405,133.185 137.072,131.185 138.5,129C 142.852,128.581 143.185,127.914 139.5,127C 143.624,123.509 147.457,119.675 151,115.5C 152.368,114.007 152.535,112.507 151.5,111C 152.701,110.097 153.535,108.931 154,107.5C 154.667,108.833 155.333,108.833 156,107.5C 157.192,109.65 158.692,110.317 160.5,109.5 Z"/></g>
<g><path style="opacity:1" fill="#b0539d" d="M 299.5,175.5 C 299.5,186.833 299.5,198.167 299.5,209.5C 298.317,210.504 296.984,211.338 295.5,212C 296.167,212.333 296.833,212.667 297.5,213C 294.99,213.376 292.657,214.21 290.5,215.5C 289.695,217.915 288.695,220.249 287.5,222.5C 288.167,223.167 288.833,223.833 289.5,224.5C 285.575,228.328 281.242,231.661 276.5,234.5C 277.5,235.167 278.5,235.833 279.5,236.5C 276.633,237.774 273.633,238.607 270.5,239C 272.5,239.333 274.5,239.667 276.5,240C 275.781,242.556 274.114,243.723 271.5,243.5C 271.5,244.833 271.5,246.167 271.5,247.5C 269.5,247.5 267.5,247.5 265.5,247.5C 266.641,255.857 262.975,259.357 254.5,258C 254.694,259.43 254.694,260.93 254.5,262.5C 252.997,261.948 251.331,261.948 249.5,262.5C 249.561,264.592 250.561,266.092 252.5,267C 249.096,270.406 247.096,269.906 246.5,265.5C 245.756,266.991 245.09,268.491 244.5,270C 243.256,270.456 242.423,269.956 242,268.5C 240.37,269.72 239.37,271.72 239,274.5C 235.661,276.5 233.827,279.5 233.5,283.5C 232.914,283.709 232.414,284.043 232,284.5C 230.932,279.98 229.098,280.147 226.5,285C 221.966,286.85 218.966,290.183 217.5,295C 217.167,295.167 216.833,295.333 216.5,295.5C 215.749,294.624 215.249,293.624 215,292.5C 214.506,294.134 214.34,295.801 214.5,297.5C 211.918,297.025 209.918,297.692 208.5,299.5C 196.5,299.5 184.5,299.5 172.5,299.5C 172.937,297.926 173.937,296.759 175.5,296C 187.208,289.486 198.542,282.486 209.5,275C 211.957,273.488 211.957,272.154 209.5,271C 211.488,270.82 213.488,270.986 215.5,271.5C 215.351,270.448 215.517,269.448 216,268.5C 222.661,263.613 228.495,258.613 233.5,253.5C 234.159,250.176 236.159,248.843 239.5,249.5C 239.5,248.167 239.5,246.833 239.5,245.5C 243.167,245.167 245.167,243.167 245.5,239.5C 246.873,239.657 248.207,239.49 249.5,239C 250.794,236.913 251.961,234.746 253,232.5C 257.297,230.196 260.964,227.196 264,223.5C 264.663,219.006 267.163,216.339 271.5,215.5C 271.724,213.213 272.391,211.047 273.5,209C 277.05,204.128 280.883,199.628 285,195.5C 285.471,193.754 286.138,192.087 287,190.5C 287.333,190.833 287.667,191.167 288,191.5C 288.652,185.867 291.319,181.534 296,178.5C 296.483,177.552 296.649,176.552 296.5,175.5C 297.5,175.5 298.5,175.5 299.5,175.5 Z"/></g>
<g><path style="opacity:1" fill="#876aaf" d="M 200.5,103.5 C 206.429,104.14 211.763,106.14 216.5,109.5C 215.352,110.164 214.019,110.331 212.5,110C 212.833,110.333 213.167,110.667 213.5,111C 210.933,115.302 208.766,119.802 207,124.5C 204.013,125.276 203.18,126.943 204.5,129.5C 203.086,130.624 201.586,131.624 200,132.5C 199.383,133.449 199.549,134.282 200.5,135C 199.5,135.333 198.5,135.667 197.5,136C 201.025,136.179 204.359,136.679 207.5,137.5C 203.818,137.335 200.152,137.501 196.5,138C 184.975,142.676 179.308,151.176 179.5,163.5C 177.143,165.098 174.477,166.098 171.5,166.5C 167.393,166.925 163.726,168.425 160.5,171C 148.04,181.951 146.373,194.284 155.5,208C 143.833,208.667 132.167,208.667 120.5,208C 109.262,203.356 105.095,195.19 108,183.5C 116.277,171.136 126.444,169.303 138.5,178C 146.592,178.09 148.259,174.923 143.5,168.5C 147.037,167.398 150.37,165.732 153.5,163.5C 159.656,157.176 165.656,150.676 171.5,144C 171.167,143.667 170.833,143.333 170.5,143C 172.373,140.791 174.54,138.958 177,137.5C 178.128,135.655 178.628,133.655 178.5,131.5C 179.822,131.67 180.989,131.337 182,130.5C 187.571,121.627 192.738,112.961 197.5,104.5C 198.325,103.614 199.325,103.281 200.5,103.5 Z"/></g>
<g><path style="opacity:1" fill="#806db2" d="M 96.5,183.5 C 95.5746,191.321 96.9079,198.654 100.5,205.5C 90.8893,207.474 80.8893,208.141 70.5,207.5C 65.0942,206.733 61.0942,204.066 58.5,199.5C 59.5738,197.716 61.2404,196.549 63.5,196C 68.7425,194.204 74.0758,192.704 79.5,191.5C 82.0094,190.079 84.3428,188.412 86.5,186.5C 87.086,186.709 87.586,187.043 88,187.5C 91.1968,186.211 93.8635,184.211 96,181.5C 96.4643,182.094 96.631,182.761 96.5,183.5 Z"/></g>
<g><path style="opacity:1" fill="#9165ac" d="M 191.5,181.5 C 190.469,182.249 189.302,182.915 188,183.5C 187.667,185.167 187.333,186.833 187,188.5C 185.017,192.189 182.517,193.189 179.5,191.5C 178.185,193.769 177.018,196.102 176,198.5C 175.667,197.5 175.333,196.5 175,195.5C 174.355,196.646 173.522,197.646 172.5,198.5C 173.025,199.192 173.692,199.692 174.5,200C 172.285,200.17 170.285,200.837 168.5,202C 169.167,202.333 169.833,202.667 170.5,203C 169.663,204.011 169.33,205.178 169.5,206.5C 161.742,202.091 158.909,195.424 161,186.5C 166.498,176.549 174.665,173.716 185.5,178C 187.391,179.442 189.391,180.609 191.5,181.5 Z"/></g>
<g><path style="opacity:1" fill="#7a70b4" d="M 43.5,184.5 C 43.4307,189.613 44.0974,194.613 45.5,199.5C 44.0568,200.335 43.0568,201.668 42.5,203.5C 41.5224,203.023 40.6891,202.357 40,201.5C 37.6837,202.496 35.3504,203.496 33,204.5C 32.0546,204.095 31.3879,203.428 31,202.5C 30.6258,203.416 30.1258,204.25 29.5,205C 19.5501,206.331 9.55011,206.831 -0.5,206.5C -0.5,201.167 -0.5,195.833 -0.5,190.5C 14.2332,190.301 28.8999,188.301 43.5,184.5 Z"/></g>
<g><path style="opacity:1" fill="#806db2" d="M 45.5,199.5 C 48.7152,205.388 53.0485,210.388 58.5,214.5C 57.0689,214.881 56.2355,215.881 56,217.5C 53,217.5 50,217.5 47,217.5C 45.2141,220.362 42.8808,221.028 40,219.5C 32.576,220.961 25.076,222.294 17.5,223.5C 14.2025,222.504 10.8692,222.337 7.5,223C 8.16667,223.333 8.83333,223.667 9.5,224C 6.18323,224.498 2.8499,224.665 -0.5,224.5C -0.5,218.5 -0.5,212.5 -0.5,206.5C 9.55011,206.831 19.5501,206.331 29.5,205C 30.1258,204.25 30.6258,203.416 31,202.5C 31.3879,203.428 32.0546,204.095 33,204.5C 35.3504,203.496 37.6837,202.496 40,201.5C 40.6891,202.357 41.5224,203.023 42.5,203.5C 43.0568,201.668 44.0568,200.335 45.5,199.5 Z"/></g>
<g><path style="opacity:1" fill="#a35aa3" d="M 299.5,72.5 C 299.5,84.5 299.5,96.5 299.5,108.5C 298.167,108.5 296.833,108.5 295.5,108.5C 295.36,110.124 296.027,111.29 297.5,112C 296.095,113.269 294.429,113.769 292.5,113.5C 292.5,114.833 292.5,116.167 292.5,117.5C 294.143,117.52 295.476,116.853 296.5,115.5C 297.521,116.002 297.688,116.668 297,117.5C 294.026,119.5 291.526,122 289.5,125C 288.551,125.617 287.718,125.451 287,124.5C 286.517,125.448 286.351,126.448 286.5,127.5C 288.199,127.34 289.866,127.506 291.5,128C 290.18,132.16 287.513,134.66 283.5,135.5C 283.664,138.187 283.497,140.854 283,143.5C 280.833,145.833 278.667,148.167 276.5,150.5C 277.376,151.251 278.376,151.751 279.5,152C 277.671,152.273 276.171,153.107 275,154.5C 273.306,156.24 272.139,158.24 271.5,160.5C 273.103,160.312 274.437,160.812 275.5,162C 273.37,163.261 271.203,163.761 269,163.5C 270.309,165.08 271.142,167.08 271.5,169.5C 269.5,169.5 267.5,169.5 265.5,169.5C 265.799,171.604 265.466,173.604 264.5,175.5C 261.183,177.653 258.183,180.153 255.5,183C 256.624,183.249 257.624,183.749 258.5,184.5C 256.947,185.439 255.613,186.606 254.5,188C 254.901,190.895 254.235,193.728 252.5,196.5C 251.692,196.192 251.025,195.692 250.5,195C 252.645,193.182 252.645,191.682 250.5,190.5C 250.085,193.079 248.752,194.913 246.5,196C 247.428,196.388 248.095,197.055 248.5,198C 247.214,200.946 244.881,202.112 241.5,201.5C 241.799,203.604 241.466,205.604 240.5,207.5C 235.173,211.327 230.506,215.827 226.5,221C 225.034,221.635 223.7,222.469 222.5,223.5C 221.808,222.975 221.308,222.308 221,221.5C 219.684,224.688 219.184,228.022 219.5,231.5C 218.167,231.5 216.833,231.5 215.5,231.5C 215.5,232.833 215.5,234.167 215.5,235.5C 212.833,235.5 210.167,235.5 207.5,235.5C 207.5,236.833 207.5,238.167 207.5,239.5C 206.448,239.351 205.448,239.517 204.5,240C 203.667,242.167 202.167,243.667 200,244.5C 199.667,243.833 199.333,243.167 199,242.5C 198.64,244.421 197.806,246.088 196.5,247.5C 195.549,246.674 194.549,246.508 193.5,247C 194.711,247.893 194.711,248.726 193.5,249.5C 191.587,250.373 189.753,251.373 188,252.5C 186.148,254.23 186.314,255.396 188.5,256C 185.739,257.139 183.073,257.806 180.5,258C 177.158,261.009 174.158,264.343 171.5,268C 169.887,268.089 168.72,267.255 168,265.5C 165.597,266.781 163.763,268.614 162.5,271C 164.481,271.605 164.815,272.605 163.5,274C 161.887,274.089 160.72,273.255 160,271.5C 157.114,273.634 154.447,275.968 152,278.5C 151.667,277.833 151.333,277.167 151,276.5C 148.959,278.65 146.459,279.65 143.5,279.5C 143.649,280.552 143.483,281.552 143,282.5C 140.833,283.333 139.333,284.833 138.5,287C 137.552,287.483 136.552,287.649 135.5,287.5C 135.881,285.058 135.214,284.391 133.5,285.5C 134.089,287.373 133.422,289.04 131.5,290.5C 130.719,289.263 129.719,288.263 128.5,287.5C 127.52,290.086 127.187,292.753 127.5,295.5C 123.407,295.478 119.407,294.811 115.5,293.5C 111.916,293.965 109.583,295.965 108.5,299.5C 95.8333,299.5 83.1667,299.5 70.5,299.5C 73.7753,298.25 77.1087,296.917 80.5,295.5C 83.2623,296.057 86.0956,296.39 89,296.5C 90.8261,295.99 90.9928,295.156 89.5,294C 91.0806,293.293 92.5806,292.46 94,291.5C 96.1428,292.245 98.4761,292.245 101,291.5C 102.3,289.541 104.133,288.374 106.5,288C 105.304,287.346 105.304,286.846 106.5,286.5C 107.167,286.833 107.833,287.167 108.5,287.5C 113.923,284.433 119.256,282.1 124.5,280.5C 127.055,283.251 128.055,282.584 127.5,278.5C 133.089,277.426 137.922,275.093 142,271.5C 142.945,271.905 143.612,272.572 144,273.5C 144.707,271.919 145.54,270.419 146.5,269C 150.683,266.743 155.016,264.743 159.5,263C 167.614,256.223 176.28,250.223 185.5,245C 188.908,242.624 191.908,239.791 194.5,236.5C 196.167,235.667 197.833,234.833 199.5,234C 200.833,233 200.833,232 199.5,231C 202.482,229.287 205.482,228.62 208.5,229C 207.833,228.667 207.167,228.333 206.5,228C 208,226.167 209.5,224.333 211,222.5C 212.008,222.018 213.175,221.852 214.5,222C 214.043,221.586 213.709,221.086 213.5,220.5C 216.537,217.961 219.37,215.294 222,212.5C 222.414,212.957 222.914,213.291 223.5,213.5C 224.5,212.5 225.5,211.5 226.5,210.5C 225.209,209.473 225.209,208.473 226.5,207.5C 237.459,199.531 245.459,189.198 250.5,176.5C 251.552,176.649 252.552,176.483 253.5,176C 252.939,174.434 253.606,173.101 255.5,172C 255.153,170.431 254.986,168.598 255,166.5C 256.127,169.377 256.794,172.377 257,175.5C 257.243,169.104 258.91,163.104 262,157.5C 263.154,156.257 264.488,155.257 266,154.5C 268.5,149.5 271,144.5 273.5,139.5C 275.131,137.703 277.131,136.536 279.5,136C 278.552,135.517 277.552,135.351 276.5,135.5C 276.673,132.821 277.673,130.487 279.5,128.5C 278.355,127.109 278.355,125.776 279.5,124.5C 281.167,123.5 282.5,122.167 283.5,120.5C 284.689,119.571 286.022,119.238 287.5,119.5C 287.543,115.107 287.043,114.774 286,118.5C 284.049,116.863 284.216,115.363 286.5,114C 285.446,112.612 285.28,111.112 286,109.5C 287.766,107.404 289.099,105.071 290,102.5C 290.75,101.874 291.584,101.374 292.5,101C 290.068,99.9125 290.402,99.4125 293.5,99.5C 294.045,103.172 294.378,102.838 294.5,98.5C 289.532,98.1341 289.866,97.6341 295.5,97C 294.128,96.3691 292.795,95.7025 291.5,95C 291.903,93.5272 292.57,92.1939 293.5,91C 292.701,88.7724 293.701,87.4391 296.5,87C 295.424,85.2739 295.257,83.4406 296,81.5C 296.535,78.031 297.702,75.031 299.5,72.5 Z"/></g>
<g><path style="opacity:1" fill="#a38fc4" d="M 100.5,205.5 C 101.267,206.172 101.934,207.005 102.5,208C 91.6586,208.825 80.992,208.659 70.5,207.5C 80.8893,208.141 90.8893,207.474 100.5,205.5 Z"/></g>
<g><path style="opacity:1" fill="#a05ca4" d="M 226.5,207.5 C 225.209,208.473 225.209,209.473 226.5,210.5C 225.5,211.5 224.5,212.5 223.5,213.5C 222.914,213.291 222.414,212.957 222,212.5C 219.37,215.294 216.537,217.961 213.5,220.5C 213.709,221.086 214.043,221.586 214.5,222C 213.175,221.852 212.008,222.018 211,222.5C 209.5,224.333 208,226.167 206.5,228C 207.167,228.333 207.833,228.667 208.5,229C 205.482,228.62 202.482,229.287 199.5,231C 200.833,232 200.833,233 199.5,234C 197.833,234.833 196.167,235.667 194.5,236.5C 191.908,239.791 188.908,242.624 185.5,245C 176.28,250.223 167.614,256.223 159.5,263C 155.016,264.743 150.683,266.743 146.5,269C 145.54,270.419 144.707,271.919 144,273.5C 143.612,272.572 142.945,271.905 142,271.5C 137.922,275.093 133.089,277.426 127.5,278.5C 128.055,282.584 127.055,283.251 124.5,280.5C 119.256,282.1 113.923,284.433 108.5,287.5C 107.833,287.167 107.167,286.833 106.5,286.5C 105.304,286.846 105.304,287.346 106.5,288C 104.133,288.374 102.3,289.541 101,291.5C 98.4761,292.245 96.1428,292.245 94,291.5C 92.5806,292.46 91.0806,293.293 89.5,294C 90.9928,295.156 90.8261,295.99 89,296.5C 86.0956,296.39 83.2623,296.057 80.5,295.5C 77.1087,296.917 73.7753,298.25 70.5,299.5C 46.8333,299.5 23.1667,299.5 -0.5,299.5C -0.5,297.833 -0.5,296.167 -0.5,294.5C 1.01739,294.511 2.18405,295.177 3,296.5C 3.75044,295.874 4.58377,295.374 5.5,295C 12.0384,294.225 18.5384,294.391 25,295.5C 26.6667,294.5 28.3333,293.5 30,292.5C 31.7918,293.037 33.6251,293.37 35.5,293.5C 50.4723,290.813 65.139,287.98 79.5,285C 82.6233,284.113 84.9567,282.279 86.5,279.5C 87.1667,280.5 87.8333,281.5 88.5,282.5C 91.5544,280.306 94.8878,278.639 98.5,277.5C 100.472,276.843 102.305,276.843 104,277.5C 105.5,276.333 107,275.167 108.5,274C 116.336,270.999 124.003,267.666 131.5,264C 133.134,263.506 134.801,263.34 136.5,263.5C 136.33,262.178 136.663,261.011 137.5,260C 139.676,259.837 141.509,259.004 143,257.5C 143.333,257.833 143.667,258.167 144,258.5C 144.374,257.584 144.874,256.75 145.5,256C 147.473,255.505 149.473,255.338 151.5,255.5C 151.5,254.167 151.5,252.833 151.5,251.5C 154.016,251.245 156.35,250.411 158.5,249C 166.213,243.817 173.88,238.65 181.5,233.5C 184.699,229.802 188.365,226.635 192.5,224C 192.167,223.667 191.833,223.333 191.5,223C 193.715,221.956 196.048,221.29 198.5,221C 197.833,220.667 197.167,220.333 196.5,220C 197.571,219.148 198.571,218.315 199.5,217.5C 209.258,216.117 218.258,212.784 226.5,207.5 Z"/></g>
<g><path style="opacity:1" fill="#8669ae" d="M 58.5,214.5 C 61.7157,215.938 65.049,217.105 68.5,218C 77.4938,218.5 86.4938,218.666 95.5,218.5C 95.5,219.5 95.5,220.5 95.5,221.5C 85.498,224.89 75.498,228.39 65.5,232C 55.2438,233.45 45.2438,235.783 35.5,239C 28.3907,238.891 21.5573,239.724 15,241.5C 14.2613,240.426 13.2613,239.759 12,239.5C 10.4447,240.848 8.61133,241.514 6.5,241.5C 4.15906,240.818 1.82573,240.151 -0.5,239.5C -0.5,234.5 -0.5,229.5 -0.5,224.5C 2.8499,224.665 6.18323,224.498 9.5,224C 8.83333,223.667 8.16667,223.333 7.5,223C 10.8692,222.337 14.2025,222.504 17.5,223.5C 25.076,222.294 32.576,220.961 40,219.5C 42.8808,221.028 45.2141,220.362 47,217.5C 50,217.5 53,217.5 56,217.5C 56.2355,215.881 57.0689,214.881 58.5,214.5 Z"/></g>
<g><path style="opacity:1" fill="#8d66ac" d="M 95.5,218.5 C 106.833,218.5 118.167,218.5 129.5,218.5C 126.733,220.871 123.4,222.038 119.5,222C 122.362,222.27 125.028,223.104 127.5,224.5C 126.332,226.217 124.665,226.884 122.5,226.5C 121.187,222.694 120.02,223.027 119,227.5C 118.667,226.833 118.333,226.167 118,225.5C 115.486,226.089 113.486,227.422 112,229.5C 110.927,228.72 109.76,228.887 108.5,230C 107.54,231.419 106.707,232.919 106,234.5C 103.918,231.85 102.251,232.184 101,235.5C 100.439,234.978 99.772,234.645 99,234.5C 95.7665,235.98 92.4331,237.314 89,238.5C 87.7425,238.85 87.4092,239.517 88,240.5C 89.4299,240.306 90.9299,240.306 92.5,240.5C 90.8068,241.228 89.3068,242.228 88,243.5C 86.7188,243.619 85.5521,243.119 84.5,242C 85.9561,241.577 86.4561,240.744 86,239.5C 80.8477,241.201 75.8477,243.201 71,245.5C 68.7658,244.295 67.0992,244.961 66,247.5C 64.3179,245.446 62.6512,245.779 61,248.5C 59.4667,248.056 57.9667,247.723 56.5,247.5C 56.1667,247.667 55.8333,247.833 55.5,248C 56.3567,248.689 57.0233,249.522 57.5,250.5C 57.1543,251.696 56.6543,251.696 56,250.5C 54.5057,254.304 53.6724,253.971 53.5,249.5C 51.4727,249.338 49.4727,249.505 47.5,250C 43.9902,251.518 40.4902,253.018 37,254.5C 35.3951,252.936 33.5618,252.436 31.5,253C 30.8448,254.487 29.8448,255.653 28.5,256.5C 26.0497,252.857 23.2164,252.523 20,255.5C 18.9505,254.483 17.7839,254.316 16.5,255C 17.8882,255.889 17.7215,256.389 16,256.5C 14.3241,253.84 12.6574,253.84 11,256.5C 9.60931,254.285 7.94264,254.285 6,256.5C 4.85252,255.542 3.85252,255.875 3,257.5C 2.29044,256.027 1.12377,255.36 -0.5,255.5C -0.5,250.167 -0.5,244.833 -0.5,239.5C 1.82573,240.151 4.15906,240.818 6.5,241.5C 8.61133,241.514 10.4447,240.848 12,239.5C 13.2613,239.759 14.2613,240.426 15,241.5C 21.5573,239.724 28.3907,238.891 35.5,239C 45.2438,235.783 55.2438,233.45 65.5,232C 75.498,228.39 85.498,224.89 95.5,221.5C 95.5,220.5 95.5,219.5 95.5,218.5 Z"/></g>
<g><path style="opacity:1" fill="#9461a9" d="M 151.5,218.5 C 156.833,218.5 162.167,218.5 167.5,218.5C 157.032,219.317 157.032,220.484 167.5,222C 164.854,222.497 162.187,222.664 159.5,222.5C 159.5,223.5 159.5,224.5 159.5,225.5C 156.886,225.277 155.219,226.444 154.5,229C 153.216,229.684 152.049,229.517 151,228.5C 149.151,230.047 147.651,231.881 146.5,234C 143.185,234.941 139.852,235.774 136.5,236.5C 134.967,238.289 133.967,240.289 133.5,242.5C 132.167,242.5 130.833,242.5 129.5,242.5C 129.649,241.448 129.483,240.448 129,239.5C 127.154,243.855 123.987,246.521 119.5,247.5C 119.5,248.5 119.5,249.5 119.5,250.5C 116.813,250.336 114.146,250.503 111.5,251C 106.06,253.675 100.393,255.842 94.5,257.5C 92.3448,257.162 90.0115,257.162 87.5,257.5C 87.5,259.167 87.5,260.833 87.5,262.5C 82.1667,262.833 76.8333,263.167 71.5,263.5C 71.6495,264.552 71.4828,265.552 71,266.5C 69.54,264.578 67.8733,263.911 66,264.5C 65.3828,265.449 65.5494,266.282 66.5,267C 65.9747,267.692 65.3081,268.192 64.5,268.5C 60.5575,267.4 56.5575,267.233 52.5,268C 51.8333,269 51.1667,270 50.5,271C 45.4173,271.333 40.4173,272.167 35.5,273.5C 33.5136,273.213 31.6803,272.547 30,271.5C 28.3333,272.5 26.6667,273.5 25,274.5C 16.5423,273.543 8.04231,273.21 -0.5,273.5C -0.5,270.5 -0.5,267.5 -0.5,264.5C 2.10022,265.359 4.60022,265.692 7,265.5C 8.66667,264.5 10.3333,263.5 12,262.5C 13.6667,263.833 15.3333,263.833 17,262.5C 21.6577,265.377 25.491,264.544 28.5,260C 29.7839,259.316 30.9505,259.483 32,260.5C 36.2678,258.203 36.4344,258.703 32.5,262C 33,262.5 33.5,263 34,263.5C 34.6667,262.167 35.6667,261.167 37,260.5C 37.4561,261.744 36.9561,262.577 35.5,263C 38.8323,263.671 39.9989,262.504 39,259.5C 42.0491,260.61 45.2158,261.277 48.5,261.5C 48.5,259.5 48.5,257.5 48.5,255.5C 49.5,255.5 50.5,255.5 51.5,255.5C 52.1434,263.274 53.31,263.274 55,255.5C 57.602,255.899 60.102,255.899 62.5,255.5C 62.8333,254.833 63.1667,254.167 63.5,253.5C 65.9493,257.413 68.4493,257.413 71,253.5C 71.7175,254.451 72.5509,254.617 73.5,254C 73.264,251.686 73.264,249.52 73.5,247.5C 74.8425,248.902 75.6758,248.569 76,246.5C 75.8718,248.445 76.0385,250.278 76.5,252C 73.9365,252.763 73.9365,253.263 76.5,253.5C 77.6473,253.182 78.4806,252.516 79,251.5C 80,254.167 81,254.167 82,251.5C 85.1103,252.673 85.277,252.173 82.5,250C 83.9003,248.562 85.567,247.729 87.5,247.5C 87.281,248.675 87.6143,249.675 88.5,250.5C 94.6465,249.14 94.9799,247.806 89.5,246.5C 91.0777,245.702 92.7444,245.202 94.5,245C 93.2888,244.107 93.2888,243.274 94.5,242.5C 95.2508,243.376 95.7508,244.376 96,245.5C 96.9745,243.122 97.6411,243.456 98,246.5C 99,244.5 100,242.5 101,240.5C 101.333,241.833 101.667,243.167 102,244.5C 104.48,242.834 107.313,242.001 110.5,242C 108.122,241.489 105.788,240.822 103.5,240C 106.191,240.054 108.024,238.887 109,236.5C 109.085,238.085 109.251,239.418 109.5,240.5C 110.478,240.023 111.311,239.357 112,238.5C 115.404,239.333 117.904,238 119.5,234.5C 122.167,233.833 124.833,233.167 127.5,232.5C 128.183,229.539 129.016,229.205 130,231.5C 133.332,229.557 133.166,228.39 129.5,228C 130.833,227.667 132.167,227.333 133.5,227C 131.74,226.035 131.406,224.868 132.5,223.5C 133.192,224.025 133.692,224.692 134,225.5C 134.402,224.128 134.902,222.795 135.5,221.5C 140.97,220.491 146.303,219.491 151.5,218.5 Z"/></g>
<g><path style="opacity:1" fill="#9a5fa6" d="M 199.5,217.5 C 198.571,218.315 197.571,219.148 196.5,220C 197.167,220.333 197.833,220.667 198.5,221C 196.048,221.29 193.715,221.956 191.5,223C 191.833,223.333 192.167,223.667 192.5,224C 188.365,226.635 184.699,229.802 181.5,233.5C 173.88,238.65 166.213,243.817 158.5,249C 156.35,250.411 154.016,251.245 151.5,251.5C 151.5,252.833 151.5,254.167 151.5,255.5C 149.473,255.338 147.473,255.505 145.5,256C 144.874,256.75 144.374,257.584 144,258.5C 143.667,258.167 143.333,257.833 143,257.5C 141.509,259.004 139.676,259.837 137.5,260C 136.663,261.011 136.33,262.178 136.5,263.5C 134.801,263.34 133.134,263.506 131.5,264C 124.003,267.666 116.336,270.999 108.5,274C 107,275.167 105.5,276.333 104,277.5C 102.305,276.843 100.472,276.843 98.5,277.5C 94.8878,278.639 91.5544,280.306 88.5,282.5C 87.8333,281.5 87.1667,280.5 86.5,279.5C 84.9567,282.279 82.6233,284.113 79.5,285C 65.139,287.98 50.4723,290.813 35.5,293.5C 33.6251,293.37 31.7918,293.037 30,292.5C 28.3333,293.5 26.6667,294.5 25,295.5C 18.5384,294.391 12.0384,294.225 5.5,295C 4.58377,295.374 3.75044,295.874 3,296.5C 2.18405,295.177 1.01739,294.511 -0.5,294.5C -0.5,287.5 -0.5,280.5 -0.5,273.5C 8.04231,273.21 16.5423,273.543 25,274.5C 26.6667,273.5 28.3333,272.5 30,271.5C 31.6803,272.547 33.5136,273.213 35.5,273.5C 40.4173,272.167 45.4173,271.333 50.5,271C 51.1667,270 51.8333,269 52.5,268C 56.5575,267.233 60.5575,267.4 64.5,268.5C 65.3081,268.192 65.9747,267.692 66.5,267C 65.5494,266.282 65.3828,265.449 66,264.5C 67.8733,263.911 69.54,264.578 71,266.5C 71.4828,265.552 71.6495,264.552 71.5,263.5C 76.8333,263.167 82.1667,262.833 87.5,262.5C 87.5,260.833 87.5,259.167 87.5,257.5C 90.0115,257.162 92.3448,257.162 94.5,257.5C 100.393,255.842 106.06,253.675 111.5,251C 114.146,250.503 116.813,250.336 119.5,250.5C 119.5,249.5 119.5,248.5 119.5,247.5C 123.987,246.521 127.154,243.855 129,239.5C 129.483,240.448 129.649,241.448 129.5,242.5C 130.833,242.5 132.167,242.5 133.5,242.5C 133.967,240.289 134.967,238.289 136.5,236.5C 139.852,235.774 143.185,234.941 146.5,234C 147.651,231.881 149.151,230.047 151,228.5C 152.049,229.517 153.216,229.684 154.5,229C 155.219,226.444 156.886,225.277 159.5,225.5C 159.5,224.5 159.5,223.5 159.5,222.5C 162.187,222.664 164.854,222.497 167.5,222C 157.032,220.484 157.032,219.317 167.5,218.5C 178.198,218.737 188.865,218.404 199.5,217.5 Z"/></g>
<g><path style="opacity:1" fill="#b84f9a" d="M 299.5,223.5 C 299.5,236.833 299.5,250.167 299.5,263.5C 294.506,268.133 289.506,272.799 284.5,277.5C 280.861,282.639 276.694,287.306 272,291.5C 271.667,290.5 271.333,289.5 271,288.5C 269.589,290.65 268.755,292.984 268.5,295.5C 265.814,296.843 263.148,298.176 260.5,299.5C 248.833,299.5 237.167,299.5 225.5,299.5C 229.153,295.542 233.486,292.209 238.5,289.5C 239.922,286.47 242.255,284.636 245.5,284C 247.833,282.757 248.5,281.091 247.5,279C 250.997,278.088 253.997,276.422 256.5,274C 257.38,272.644 257.714,271.144 257.5,269.5C 261.506,269.512 263.84,267.512 264.5,263.5C 266.167,263.5 267.833,263.5 269.5,263.5C 270.167,260.833 270.833,258.167 271.5,255.5C 273.199,255.66 274.866,255.494 276.5,255C 275.663,253.989 275.33,252.822 275.5,251.5C 276.822,251.33 277.989,251.663 279,252.5C 280.755,246.403 284.422,241.736 290,238.5C 293.274,233.507 296.441,228.507 299.5,223.5 Z"/></g>
<g><path style="opacity:1" fill="#b5519a" d="M 299.5,209.5 C 299.5,214.167 299.5,218.833 299.5,223.5C 296.441,228.507 293.274,233.507 290,238.5C 284.422,241.736 280.755,246.403 279,252.5C 277.989,251.663 276.822,251.33 275.5,251.5C 275.33,252.822 275.663,253.989 276.5,255C 274.866,255.494 273.199,255.66 271.5,255.5C 270.833,258.167 270.167,260.833 269.5,263.5C 267.833,263.5 266.167,263.5 264.5,263.5C 263.84,267.512 261.506,269.512 257.5,269.5C 257.714,271.144 257.38,272.644 256.5,274C 253.997,276.422 250.997,278.088 247.5,279C 248.5,281.091 247.833,282.757 245.5,284C 242.255,284.636 239.922,286.47 238.5,289.5C 233.486,292.209 229.153,295.542 225.5,299.5C 219.833,299.5 214.167,299.5 208.5,299.5C 209.918,297.692 211.918,297.025 214.5,297.5C 214.34,295.801 214.506,294.134 215,292.5C 215.249,293.624 215.749,294.624 216.5,295.5C 216.833,295.333 217.167,295.167 217.5,295C 218.966,290.183 221.966,286.85 226.5,285C 229.098,280.147 230.932,279.98 232,284.5C 232.414,284.043 232.914,283.709 233.5,283.5C 233.827,279.5 235.661,276.5 239,274.5C 239.37,271.72 240.37,269.72 242,268.5C 242.423,269.956 243.256,270.456 244.5,270C 245.09,268.491 245.756,266.991 246.5,265.5C 247.096,269.906 249.096,270.406 252.5,267C 250.561,266.092 249.561,264.592 249.5,262.5C 251.331,261.948 252.997,261.948 254.5,262.5C 254.694,260.93 254.694,259.43 254.5,258C 262.975,259.357 266.641,255.857 265.5,247.5C 267.5,247.5 269.5,247.5 271.5,247.5C 271.5,246.167 271.5,244.833 271.5,243.5C 274.114,243.723 275.781,242.556 276.5,240C 274.5,239.667 272.5,239.333 270.5,239C 273.633,238.607 276.633,237.774 279.5,236.5C 278.5,235.833 277.5,235.167 276.5,234.5C 281.242,231.661 285.575,228.328 289.5,224.5C 288.833,223.833 288.167,223.167 287.5,222.5C 288.695,220.249 289.695,217.915 290.5,215.5C 292.657,214.21 294.99,213.376 297.5,213C 296.833,212.667 296.167,212.333 295.5,212C 296.984,211.338 298.317,210.504 299.5,209.5 Z"/></g>
<g><path style="opacity:1" fill="#9164ab" d="M 129.5,218.5 C 136.833,218.5 144.167,218.5 151.5,218.5C 146.303,219.491 140.97,220.491 135.5,221.5C 134.902,222.795 134.402,224.128 134,225.5C 133.692,224.692 133.192,224.025 132.5,223.5C 131.406,224.868 131.74,226.035 133.5,227C 132.167,227.333 130.833,227.667 129.5,228C 133.166,228.39 133.332,229.557 130,231.5C 129.016,229.205 128.183,229.539 127.5,232.5C 124.833,233.167 122.167,233.833 119.5,234.5C 117.904,238 115.404,239.333 112,238.5C 111.311,239.357 110.478,240.023 109.5,240.5C 109.251,239.418 109.085,238.085 109,236.5C 108.024,238.887 106.191,240.054 103.5,240C 105.788,240.822 108.122,241.489 110.5,242C 107.313,242.001 104.48,242.834 102,244.5C 101.667,243.167 101.333,241.833 101,240.5C 100,242.5 99,244.5 98,246.5C 97.6411,243.456 96.9745,243.122 96,245.5C 95.7508,244.376 95.2508,243.376 94.5,242.5C 93.2888,243.274 93.2888,244.107 94.5,245C 92.7444,245.202 91.0777,245.702 89.5,246.5C 94.9799,247.806 94.6465,249.14 88.5,250.5C 87.6143,249.675 87.281,248.675 87.5,247.5C 85.567,247.729 83.9003,248.562 82.5,250C 85.277,252.173 85.1103,252.673 82,251.5C 81,254.167 80,254.167 79,251.5C 78.4806,252.516 77.6473,253.182 76.5,253.5C 73.9365,253.263 73.9365,252.763 76.5,252C 76.0385,250.278 75.8718,248.445 76,246.5C 75.6758,248.569 74.8425,248.902 73.5,247.5C 73.264,249.52 73.264,251.686 73.5,254C 72.5509,254.617 71.7175,254.451 71,253.5C 68.4493,257.413 65.9493,257.413 63.5,253.5C 63.1667,254.167 62.8333,254.833 62.5,255.5C 60.102,255.899 57.602,255.899 55,255.5C 53.31,263.274 52.1434,263.274 51.5,255.5C 50.5,255.5 49.5,255.5 48.5,255.5C 48.5,257.5 48.5,259.5 48.5,261.5C 45.2158,261.277 42.0491,260.61 39,259.5C 39.9989,262.504 38.8323,263.671 35.5,263C 36.9561,262.577 37.4561,261.744 37,260.5C 35.6667,261.167 34.6667,262.167 34,263.5C 33.5,263 33,262.5 32.5,262C 36.4344,258.703 36.2678,258.203 32,260.5C 30.9505,259.483 29.7839,259.316 28.5,260C 25.491,264.544 21.6577,265.377 17,262.5C 15.3333,263.833 13.6667,263.833 12,262.5C 10.3333,263.5 8.66667,264.5 7,265.5C 4.60022,265.692 2.10022,265.359 -0.5,264.5C -0.5,261.5 -0.5,258.5 -0.5,255.5C 1.12377,255.36 2.29044,256.027 3,257.5C 3.85252,255.875 4.85252,255.542 6,256.5C 7.94264,254.285 9.60931,254.285 11,256.5C 12.6574,253.84 14.3241,253.84 16,256.5C 17.7215,256.389 17.8882,255.889 16.5,255C 17.7839,254.316 18.9505,254.483 20,255.5C 23.2164,252.523 26.0497,252.857 28.5,256.5C 29.8448,255.653 30.8448,254.487 31.5,253C 33.5618,252.436 35.3951,252.936 37,254.5C 40.4902,253.018 43.9902,251.518 47.5,250C 49.4727,249.505 51.4727,249.338 53.5,249.5C 53.6724,253.971 54.5057,254.304 56,250.5C 56.6543,251.696 57.1543,251.696 57.5,250.5C 57.0233,249.522 56.3567,248.689 55.5,248C 55.8333,247.833 56.1667,247.667 56.5,247.5C 57.9667,247.723 59.4667,248.056 61,248.5C 62.6512,245.779 64.3179,245.446 66,247.5C 67.0992,244.961 68.7658,244.295 71,245.5C 75.8477,243.201 80.8477,241.201 86,239.5C 86.4561,240.744 85.9561,241.577 84.5,242C 85.5521,243.119 86.7188,243.619 88,243.5C 89.3068,242.228 90.8068,241.228 92.5,240.5C 90.9299,240.306 89.4299,240.306 88,240.5C 87.4092,239.517 87.7425,238.85 89,238.5C 92.4331,237.314 95.7665,235.98 99,234.5C 99.772,234.645 100.439,234.978 101,235.5C 102.251,232.184 103.918,231.85 106,234.5C 106.707,232.919 107.54,231.419 108.5,230C 109.76,228.887 110.927,228.72 112,229.5C 113.486,227.422 115.486,226.089 118,225.5C 118.333,226.167 118.667,226.833 119,227.5C 120.02,223.027 121.187,222.694 122.5,226.5C 124.665,226.884 126.332,226.217 127.5,224.5C 125.028,223.104 122.362,222.27 119.5,222C 123.4,222.038 126.733,220.871 129.5,218.5 Z"/></g>
<g><path style="opacity:1" fill="#bd4d98" d="M 299.5,263.5 C 299.5,275.5 299.5,287.5 299.5,299.5C 286.5,299.5 273.5,299.5 260.5,299.5C 263.148,298.176 265.814,296.843 268.5,295.5C 268.755,292.984 269.589,290.65 271,288.5C 271.333,289.5 271.667,290.5 272,291.5C 276.694,287.306 280.861,282.639 284.5,277.5C 289.506,272.799 294.506,268.133 299.5,263.5 Z"/></g>
</svg>
